<svg xmlns="http://www.w3.org/2000/svg" width="72" height="72" viewBox="0 0 72 72" fill="none"><g clip-path="url(#clip0_5058_138953)"><path d="M60.3785 37.703C58.5126 39.1248 56.7165 40.4817 54.9269 41.8443C54.5688 42.1144 54.3164 42.3054 53.9234 42.718C53.6282 43.0213 53.0162 43.678 53.4086 43.9255C53.7541 44.0961 54.0211 44.1733 54.6893 43.764C56.4096 42.6985 57.9575 41.3857 59.5004 40.0916C60.8619 38.9478 61.8827 38.0549 63.0276 36.9719C63.5622 36.4661 63.4882 36.0056 62.9294 35.6205C62.4278 35.2751 61.9191 34.9117 61.3618 34.6671C59.3575 33.7741 57.3379 32.937 55.317 32.0755C55.0666 31.9669 54.8778 31.8672 54.5614 31.7806C54.177 31.6793 53.9029 31.5843 53.7323 31.9297C53.5668 32.2565 53.9638 32.5893 54.1969 32.7172C56.1215 33.8284 60.1297 36.0543 60.316 36.2214C59.0216 36.5792 57.8311 36.9375 56.6186 37.2297C48.1655 39.2246 39.6418 40.6 30.8969 39.9341C23.9746 39.4071 17.2342 38.0696 10.7061 35.6938C10.3197 35.556 9.91663 35.4496 9.52644 35.3548C8.99955 35.2185 8.70131 35.2409 8.61202 35.5085C8.5123 36.0334 8.84621 36.2169 9.09991 36.3864C9.60154 36.7318 10.1832 36.9751 10.7462 37.2133C18.3103 40.321 26.2386 41.5876 34.3669 41.8166C42.7095 42.0522 50.7605 40.4154 58.7005 38.0879C59.1146 37.9492 60.1706 37.7022 60.3785 37.703Z" fill="#344054"></path></g><defs><clipPath id="clip0_5058_138953"><rect width="49.7082" height="49.7082" fill="white" transform="matrix(0.667556 -0.74456 -0.74456 -0.667556 37.9141 71.0977)"></rect></clipPath></defs></svg>