<svg xmlns="http://www.w3.org/2000/svg" width="71" height="72" viewBox="0 0 71 72" fill="none"><g clip-path="url(#clip0_5058_138956)"><path d="M59.4742 34.297C57.6083 32.8752 55.8122 31.5183 54.0226 30.1557C53.6645 29.8856 53.4121 29.6946 53.0191 29.282C52.7239 28.9787 52.112 28.322 52.5044 28.0745C52.8498 27.9039 53.1168 27.8267 53.785 28.236C55.5053 29.3015 57.0532 30.6143 58.5961 31.9084C59.9576 33.0522 60.9784 33.9451 62.1233 35.0281C62.6579 35.5339 62.5839 35.9944 62.0251 36.3795C61.5235 36.7249 61.0148 37.0883 60.4576 37.3329C58.4532 38.2259 56.4336 39.063 54.4127 39.9245C54.1623 40.0331 53.9735 40.1328 53.6571 40.2194C53.2727 40.3207 52.9986 40.4157 52.828 40.0703C52.6625 39.7435 53.0596 39.4107 53.2926 39.2828C55.2172 38.1716 59.2254 35.9457 59.4117 35.7786C58.1173 35.4208 56.9268 35.0625 55.7143 34.7703C47.2612 32.7754 38.7375 31.4 29.9926 32.0659C23.0703 32.5929 16.3299 33.9304 9.80179 36.3062C9.41537 36.444 9.01233 36.5504 8.62215 36.6452C8.09526 36.7815 7.79702 36.7591 7.70772 36.4915C7.60801 35.9666 7.94191 35.7831 8.19561 35.6136C8.69724 35.2682 9.27886 35.0249 9.84187 34.7867C17.406 31.679 25.3343 30.4124 33.4626 30.1834C41.8052 29.9478 49.8562 31.5846 57.7962 33.9121C58.2103 34.0508 59.2663 34.2978 59.4742 34.297Z" fill="#344054"></path></g><defs><clipPath id="clip0_5058_138956"><rect width="49.7082" height="49.7082" fill="white" transform="translate(37.0098 0.902344) rotate(48.1213)"></rect></clipPath></defs></svg>