<svg xmlns="http://www.w3.org/2000/svg" width="32" height="32" viewBox="0 0 32 32" fill="none"><path d="M13.732 22.7005L21.3987 15.0339L20.0654 13.7005L13.7654 20.0005L10.432 16.6672L9.06536 18.0339L13.732 22.7005ZM8.36537 26.6672C6.40981 26.6672 4.7487 25.9839 3.38203 24.6172C2.01536 23.2505 1.33203 21.5894 1.33203 19.6339C1.33203 17.9005 1.88759 16.3783 2.9987 15.0672C4.10981 13.7561 5.52092 12.9672 7.23203 12.7005C7.67648 10.545 8.72092 8.78385 10.3654 7.41719C12.0098 6.05052 13.9098 5.36719 16.0654 5.36719C18.5543 5.36719 20.6543 6.27274 22.3654 8.08385C24.0765 9.89497 24.932 12.0672 24.932 14.6005V15.4005C26.532 15.3561 27.8876 15.8727 28.9987 16.9505C30.1098 18.0283 30.6654 19.3894 30.6654 21.0339C30.6654 22.5672 30.1098 23.8894 28.9987 25.0005C27.8876 26.1116 26.5654 26.6672 25.032 26.6672H8.36537Z" fill="#8624FF"></path></svg>