<svg xmlns="http://www.w3.org/2000/svg" width="37" height="30" viewBox="0 0 37 30" fill="none"><path d="M5.18202 6.25294C4.77327 6.25294 4.44155 5.91632 4.44155 5.50105C4.44155 5.08599 4.77305 4.74915 5.18202 4.74915H7.2545C7.39764 4.09858 7.72213 3.5157 8.17074 3.05911L8.17363 3.05618C8.79222 2.43014 9.64215 2.04297 10.5784 2.04297C11.5182 2.04297 12.3698 2.43034 12.9859 3.05618L13.0279 3.10274C13.4552 3.5524 13.7638 4.11868 13.9022 4.74913H31.8319C32.2407 4.74913 32.5724 5.08574 32.5724 5.50102C32.5724 5.91608 32.2409 6.25291 31.8319 6.25291H13.9032C13.7605 6.90558 13.4356 7.48948 12.9861 7.94585C12.37 8.57146 11.5182 8.95906 10.5786 8.95906C9.64094 8.95906 8.78974 8.57085 8.17236 7.9444C7.72188 7.48907 7.39698 6.90558 7.25406 6.25291L5.18202 6.25294ZM15.5933 21.1072C16.5331 21.1072 17.3847 21.4945 18.0008 22.1204C18.4503 22.5768 18.7752 23.1606 18.9179 23.8133H31.8318C32.2406 23.8133 32.5723 24.1499 32.5723 24.5652C32.5723 24.9803 32.2408 25.3171 31.8318 25.3171H18.9179C18.7752 25.9698 18.4503 26.5537 18.0008 27.01C17.3847 27.6357 16.5329 28.0232 15.5933 28.0232C14.6564 28.0232 13.8055 27.6355 13.1885 27.01L13.1856 27.0071C12.7366 26.5493 12.4121 25.9673 12.2694 25.3171H5.18188C4.77312 25.3171 4.44141 24.9804 4.44141 24.5652C4.44141 24.1501 4.77291 23.8133 5.18188 23.8133H12.2683C12.4111 23.1606 12.736 22.5767 13.1854 22.1203L13.2313 22.0778C13.8443 21.4773 14.6777 21.1071 15.5929 21.1071L15.5933 21.1072ZM16.9544 23.1829C16.6068 22.8299 16.1249 22.6107 15.5933 22.6107C15.0757 22.6107 14.6066 22.8161 14.2636 23.1487L14.2322 23.1829C13.8846 23.5359 13.6687 24.0252 13.6687 24.565C13.6687 25.107 13.8836 25.5963 14.2293 25.9472L14.2322 25.9501C14.5778 26.3014 15.0596 26.5193 15.5934 26.5193C16.125 26.5193 16.6069 26.3002 16.9545 25.9472C17.3021 25.5942 17.5179 25.1049 17.5179 24.5651C17.5179 24.0253 17.3021 23.5359 16.9545 23.1829L16.9544 23.1829ZM23.4989 11.5754C24.4358 11.5754 25.2868 11.9632 25.9037 12.5886L25.9066 12.5915C26.3556 13.0493 26.6801 13.6313 26.8228 14.2815H31.8318C32.2405 14.2815 32.5723 14.6182 32.5723 15.0334C32.5723 15.4485 32.2408 15.7853 31.8318 15.7853H26.8228C26.6797 16.4359 26.3552 17.0188 25.9066 17.4754L25.9037 17.4783C25.2851 18.1043 24.4352 18.4915 23.4989 18.4915C22.5592 18.4915 21.7075 18.1041 21.0914 17.4783L21.0495 17.4317C20.6221 16.9821 20.3136 16.4158 20.1752 15.7854H5.18218C4.77343 15.7854 4.44171 15.4487 4.44171 15.0335C4.44171 14.6184 4.77321 14.2816 5.18218 14.2816H20.1752C20.3183 13.6303 20.6434 13.0471 21.0933 12.5901C21.7082 11.963 22.5597 11.5754 23.4996 11.5754L23.4989 11.5754ZM24.8601 13.6481C24.5145 13.2968 24.0326 13.0789 23.4989 13.0789C22.9672 13.0789 22.4854 13.298 22.1378 13.651C21.7891 14.0019 21.5743 14.4912 21.5743 15.0331C21.5743 15.5587 21.7765 16.035 22.1042 16.3834L22.1378 16.4152C22.4854 16.7682 22.9673 16.9874 23.499 16.9874C24.0327 16.9874 24.5145 16.7692 24.8601 16.4181L24.863 16.4152C25.2089 16.0643 25.4236 15.575 25.4236 15.0331C25.4236 14.4911 25.2088 14.0018 24.863 13.651L24.8601 13.6481ZM11.9393 4.11898C11.5916 3.766 11.1097 3.54684 10.5781 3.54684C10.0444 3.54684 9.56254 3.76497 9.21699 4.11608L9.2141 4.11902C8.86813 4.4699 8.65351 4.95918 8.65351 5.50114C8.65351 6.041 8.86935 6.53029 9.21696 6.88326C9.56251 7.23729 10.0444 7.45539 10.5781 7.45539C11.1098 7.45539 11.5916 7.23622 11.9392 6.88326C12.2868 6.53029 12.5027 6.04095 12.5027 5.50114C12.5027 4.97555 12.3005 4.49926 11.9729 4.15091L11.9393 4.11898Z" fill="#8624FF"></path></svg>