<?xml version="1.0" encoding="UTF-8"?>
<svg width="382px" height="382px" viewBox="0 0 382 382" version="1.1" xmlns="http://www.w3.org/2000/svg" xmlns:xlink="http://www.w3.org/1999/xlink">
    <title>slashdot partner </title>
    <g id="slashdot-partner-" stroke="none" stroke-width="1" fill="none" fill-rule="evenodd">
        <g id="slashdot-partner" transform="translate(-0.000000, 0.000000)">
            <g id="Group" transform="translate(190.918831, 190.918831) rotate(-315.000000) translate(-190.918831, -190.918831) translate(55.918831, 55.918831)">
                <path d="M266,4 L266,266 L4,266 L4,4 L266,4 Z" id="Rectangle" stroke="#004D4D" stroke-width="8" fill="#FFFFFF"></path>
                <path d="M248.992621,21.3562574 L248.992621,248.992621 L21.3562574,248.992621 L21.3562574,21.3562574 L248.992621,21.3562574 Z" id="Rectangle" stroke="#004D4D" stroke-width="8" fill="#006666"></path>
                <path d="M42.1195902,154.962826 L42.1195902,138.761654 L47.7738871,138.761654 C51.6996683,138.761654 54.6977152,138.556576 56.7680277,138.14642 C58.2914652,137.814388 59.7904886,137.135677 61.265098,136.110287 C62.7397074,135.084896 63.9555277,133.673763 64.9125589,131.876888 C65.8695902,130.080013 66.3481058,127.863217 66.3481058,125.226498 C66.3481058,121.808529 65.5180277,119.020443 63.8578714,116.86224 C62.1977152,114.704037 60.1371683,113.30267 57.6762308,112.658138 C56.0746683,112.228451 52.6371683,112.013607 47.3637308,112.013607 L47.3637308,112.013607 L33.4477152,112.013607 L33.4477152,154.962826 L42.1195902,154.962826 Z M46.8656839,131.466732 L42.1195902,131.466732 L42.1195902,119.279232 L46.7107262,119.279786 C49.6129444,119.287909 51.5591282,119.38538 52.5492777,119.572201 C53.9555277,119.826107 55.1176371,120.460873 56.0356058,121.476498 C56.9535746,122.492123 57.4125589,123.781185 57.4125589,125.343685 C57.4125589,126.613217 57.0854105,127.726498 56.4311136,128.683529 C55.7768168,129.64056 54.8734964,130.343685 53.7211527,130.792904 C52.5688089,131.242123 50.2836527,131.466732 46.8656839,131.466732 L46.8656839,131.466732 Z M81.5824808,155.665951 C83.3988871,155.665951 85.1078714,155.324154 86.7094339,154.64056 C88.3109964,153.956967 89.8149027,152.931576 91.2211527,151.564388 C91.2797464,151.720638 91.3774027,152.042904 91.5141214,152.531185 C91.8266214,153.605404 92.0902933,154.415951 92.3051371,154.962826 L92.3051371,154.962826 L100.449668,154.962826 C99.7270121,153.478451 99.233848,152.086849 98.9701761,150.788021 C98.7065043,149.489193 98.5746683,147.472592 98.5746683,144.738217 L98.5746683,144.738217 L98.6625589,135.128842 C98.6625589,131.554623 98.296348,129.098568 97.5639261,127.760677 C96.8315043,126.422787 95.5668558,125.319271 93.7699808,124.450131 C91.9731058,123.58099 89.2387308,123.14642 85.5668558,123.14642 C81.5238871,123.14642 78.4770121,123.869076 76.4262308,125.314388 C74.3754496,126.759701 72.9301371,128.986263 72.0902933,131.994076 L72.0902933,131.994076 L79.5609964,133.341732 C80.0688089,131.89642 80.7328714,130.885677 81.5531839,130.309506 C82.3734964,129.733334 83.5160746,129.445248 84.9809183,129.445248 C87.1488871,129.445248 88.6234964,129.782162 89.4047464,130.45599 C90.1859964,131.129818 90.5766214,132.257748 90.5766214,133.839779 L90.5766214,133.839779 L90.5766214,134.660092 C89.0922464,135.285092 86.4262308,135.95892 82.5785746,136.681576 C79.7270121,137.228451 77.5443949,137.868099 76.030723,138.600521 C74.5170511,139.332943 73.3402933,140.387631 72.5004496,141.764584 C71.6606058,143.141537 71.2406839,144.70892 71.2406839,146.466732 C71.2406839,149.122982 72.1635355,151.320248 74.0092386,153.058529 C75.8549418,154.79681 78.3793558,155.665951 81.5824808,155.665951 Z M84.0434183,149.86517 C82.7152933,149.86517 81.6215433,149.445248 80.7621683,148.605404 C79.9027933,147.76556 79.4731058,146.769467 79.4731058,145.617123 C79.4731058,144.445248 80.0102152,143.478451 81.0844339,142.716732 C81.7875589,142.247982 83.2816996,141.769467 85.5668558,141.281185 C87.8520121,140.792904 89.5219339,140.372982 90.5766214,140.02142 L90.5766214,140.02142 L90.5766214,141.662045 C90.5766214,143.634701 90.4691996,144.972592 90.2543558,145.675717 C89.9418558,146.749935 89.2875589,147.658138 88.2914652,148.400326 C86.9438089,149.376888 85.5277933,149.86517 84.0434183,149.86517 Z M114.658653,154.962826 L114.658653,145.353451 C114.658653,140.060482 114.888145,136.58392 115.347129,134.923763 C115.806114,133.263607 116.435996,132.116146 117.236778,131.481381 C118.037559,130.846615 119.014121,130.529232 120.166465,130.529232 C121.357871,130.529232 122.646934,130.978451 124.033653,131.876888 L124.033653,131.876888 L126.582481,124.699154 C124.8442,123.663998 123.037559,123.14642 121.162559,123.14642 C119.834434,123.14642 118.647911,123.478451 117.602989,124.142513 C116.558067,124.806576 115.381309,126.183529 114.072715,128.273373 L114.072715,128.273373 L114.072715,123.849545 L106.426231,123.849545 L106.426231,154.962826 L114.658653,154.962826 Z M138.564903,155.665951 C140.986778,155.665951 143.154746,155.255795 145.068809,154.435482 L145.068809,154.435482 L144.365684,148.048763 C142.920371,148.576107 141.816856,148.839779 141.055137,148.839779 C140.508262,148.839779 140.044395,148.70306 139.663536,148.429623 C139.282676,148.156185 139.038536,147.809506 138.931114,147.389584 C138.823692,146.969662 138.769981,145.49017 138.769981,142.951107 L138.769981,130.412045 L144.394981,130.412045 L144.394981,123.849545 L138.769981,123.849545 L138.769981,112.863217 L130.508262,117.667904 L130.508262,123.849545 L126.728965,123.849545 L126.728965,130.412045 L130.508262,130.412045 L130.50876,144.350545 C130.516071,147.052947 130.603795,148.861858 130.771934,149.777279 C130.986778,151.124935 131.37252,152.194271 131.929161,152.985287 C132.485801,153.776302 133.359825,154.420834 134.551231,154.918881 C135.742637,155.416927 137.080528,155.665951 138.564903,155.665951 Z M158.2817,154.962826 L158.2817,140.871029 C158.2817,137.394467 158.491661,135.011654 158.911582,133.722592 C159.331504,132.433529 160.107871,131.398373 161.240684,130.617123 C162.373496,129.835873 163.652793,129.445248 165.078575,129.445248 C166.191856,129.445248 167.144004,129.718685 167.93502,130.26556 C168.726036,130.812435 169.297325,131.579037 169.648887,132.565365 C170.00045,133.551693 170.176231,135.724545 170.176231,139.08392 L170.176231,139.08392 L170.176231,154.962826 L178.408653,154.962826 L178.408653,135.626888 C178.408653,133.224545 178.257286,131.378842 177.954551,130.089779 C177.651817,128.800717 177.114707,127.648373 176.343223,126.632748 C175.571739,125.617123 174.434043,124.782162 172.930137,124.127865 C171.426231,123.473568 169.766075,123.14642 167.949668,123.14642 C163.828575,123.14642 160.410606,124.904232 157.695762,128.419857 L157.695762,128.419857 L157.695762,123.849545 L150.049278,123.849545 L150.049278,154.962826 L158.2817,154.962826 Z M199.443809,155.665951 C202.861778,155.665951 205.708457,154.879818 207.983848,153.307552 C210.259239,151.735287 211.924278,149.445248 212.978965,146.437435 L212.978965,146.437435 L204.77584,145.060482 C204.326621,146.622982 203.662559,147.755795 202.783653,148.45892 C201.904746,149.162045 200.820762,149.513607 199.5317,149.513607 C197.637168,149.513607 196.055137,148.834896 194.785606,147.477474 C193.516075,146.120052 192.852012,144.220638 192.793418,141.779232 L192.793418,141.779232 L213.418418,141.779232 C213.535606,135.470638 212.256309,130.788021 209.580528,127.731381 C206.904746,124.67474 203.252403,123.14642 198.623496,123.14642 C194.502403,123.14642 191.0942,124.606381 188.398887,127.526302 C185.703575,130.446224 184.355918,134.48431 184.355918,139.64056 C184.355918,143.956967 185.381309,147.531185 187.43209,150.363217 C190.029746,153.898373 194.033653,155.665951 199.443809,155.665951 Z M205.24459,136.74017 L192.939903,136.74017 C192.920371,134.494076 193.496543,132.716732 194.668418,131.408138 C195.840293,130.099545 197.324668,129.445248 199.121543,129.445248 C200.801231,129.445248 202.227012,130.065365 203.398887,131.305599 C204.570762,132.545834 205.185996,134.357357 205.24459,136.74017 L205.24459,136.74017 Z M228.008262,154.962826 L228.008934,144.862557 C228.022829,139.844971 228.252098,136.53204 228.696739,134.923763 C229.155723,133.263607 229.785606,132.116146 230.586387,131.481381 C231.387168,130.846615 232.363731,130.529232 233.516075,130.529232 C234.707481,130.529232 235.996543,130.978451 237.383262,131.876888 L237.383262,131.876888 L239.93209,124.699154 C238.193809,123.663998 236.387168,123.14642 234.512168,123.14642 C233.184043,123.14642 231.99752,123.478451 230.952598,124.142513 C229.907676,124.806576 228.730918,126.183529 227.422325,128.273373 L227.422325,128.273373 L227.422325,123.849545 L219.77584,123.849545 L219.77584,154.962826 L228.008262,154.962826 Z" id="Partner" fill="#FFFFFF" fill-rule="nonzero" transform="translate(136.689903, 133.839779) rotate(-45.000000) translate(-136.689903, -133.839779) "></path>
                <text id="2021" transform="translate(183.707004, 181.048771) rotate(-45.000000) translate(-183.707004, -181.048771) " font-family="Arial-BoldMT, Arial" font-size="45" font-weight="bold" letter-spacing="-0.9" fill="#FFFFFF">
                    <tspan x="135.453293" y="196.548771">2023</tspan>
                </text>
            </g>
            <polygon id="Fill-18-Copy-4" fill="#FFCB00" points="62.1897782 177.653374 66.2079791 186.211423 75.1908252 187.58529 68.6892548 194.245464 70.2261799 203.653374 62.1897782 199.212523 54.1554704 203.653374 55.6903017 194.245464 49.1908252 187.58529 58.1736713 186.211423"></polygon>
            <polygon id="Fill-18-Copy-4" fill="#FFCB00" points="322.189778 177.653374 326.207979 186.211423 335.190825 187.58529 328.689255 194.245464 330.22618 203.653374 322.189778 199.212523 314.15547 203.653374 315.690302 194.245464 309.190825 187.58529 318.173671 186.211423"></polygon>
            <g id="Group-2" transform="translate(157.812893, 68.943046)" fill="#FFFFFF">
                <polygon id="Rectangle" points="36.0998232 1.05466245e-13 51.3647362 1.3232272e-12 15.4123993 80.3561579 1.54187774e-12 80.3561579"></polygon>
                <circle id="Oval" cx="52.6702527" cy="67.3085304" r="13.6914696"></circle>
            </g>
            <line x1="82.6908252" y1="218.153374" x2="289.690825" y2="218.153374" id="Line-5" stroke="#01C2C3" stroke-width="3" stroke-linecap="square"></line>
        </g>
    </g>
</svg>