<svg xmlns="http://www.w3.org/2000/svg" width="32" height="32" viewBox="0 0 32 32" fill="none"><path d="M14.668 28V26H26.0013V15.8667C26.0013 14.5778 25.7235 13.3389 25.168 12.15C24.6124 10.9611 23.868 9.91111 22.9346 9C22.0013 8.08889 20.9346 7.36111 19.7346 6.81667C18.5346 6.27222 17.2902 6 16.0013 6C14.7124 6 13.468 6.27222 12.268 6.81667C11.068 7.36111 10.0013 8.08889 9.06797 9C8.13464 9.91111 7.39019 10.9611 6.83464 12.15C6.27908 13.3389 6.0013 14.5778 6.0013 15.8667V24H5.33464C4.6013 24 3.97352 23.7389 3.4513 23.2167C2.92908 22.6944 2.66797 22.0667 2.66797 21.3333V18.6667C2.66797 18.1556 2.79019 17.7056 3.03464 17.3167C3.27908 16.9278 3.6013 16.6111 4.0013 16.3667L4.1013 14.6C4.3013 12.9778 4.76241 11.5111 5.48464 10.2C6.20686 8.88889 7.10686 7.77778 8.18463 6.86667C9.26241 5.95556 10.4735 5.25 11.818 4.75C13.1624 4.25 14.5569 4 16.0013 4C17.468 4 18.8735 4.25 20.218 4.75C21.5624 5.25 22.768 5.96111 23.8346 6.88333C24.9013 7.80556 25.7957 8.91667 26.518 10.2167C27.2402 11.5167 27.7013 12.9667 27.9013 14.5667L28.0013 16.3C28.4013 16.5 28.7235 16.7944 28.968 17.1833C29.2124 17.5722 29.3346 18 29.3346 18.4667V21.5333C29.3346 22.0222 29.2124 22.4556 28.968 22.8333C28.7235 23.2111 28.4013 23.5 28.0013 23.7V26C28.0013 26.5556 27.8069 27.0278 27.418 27.4167C27.0291 27.8056 26.5569 28 26.0013 28H14.668ZM12.0013 18.3333C11.7346 18.3333 11.5013 18.2333 11.3013 18.0333C11.1013 17.8333 11.0013 17.5889 11.0013 17.3C11.0013 17.0333 11.1013 16.8056 11.3013 16.6167C11.5013 16.4278 11.7457 16.3333 12.0346 16.3333C12.3013 16.3333 12.5291 16.4278 12.718 16.6167C12.9069 16.8056 13.0013 17.0444 13.0013 17.3333C13.0013 17.6 12.9069 17.8333 12.718 18.0333C12.5291 18.2333 12.2902 18.3333 12.0013 18.3333ZM20.0013 18.3333C19.7346 18.3333 19.5013 18.2333 19.3013 18.0333C19.1013 17.8333 19.0013 17.5889 19.0013 17.3C19.0013 17.0333 19.1013 16.8056 19.3013 16.6167C19.5013 16.4278 19.7457 16.3333 20.0346 16.3333C20.3013 16.3333 20.5291 16.4278 20.718 16.6167C20.9069 16.8056 21.0013 17.0444 21.0013 17.3333C21.0013 17.6 20.9069 17.8333 20.718 18.0333C20.5291 18.2333 20.2902 18.3333 20.0013 18.3333ZM8.03464 16.6C7.94575 15.2889 8.12908 14.1 8.58464 13.0333C9.04019 11.9667 9.6513 11.0611 10.418 10.3167C11.1846 9.57222 12.068 9 13.068 8.6C14.068 8.2 15.068 8 16.068 8C18.0902 8 19.7902 8.63889 21.168 9.91667C22.5457 11.1944 23.3902 12.7889 23.7013 14.7C21.6124 14.6778 19.7735 14.1167 18.1846 13.0167C16.5957 11.9167 15.368 10.4889 14.5013 8.73333C14.1457 10.5333 13.3957 12.1278 12.2513 13.5167C11.1069 14.9056 9.7013 15.9333 8.03464 16.6Z" fill="#8624FF"></path></svg>