<svg xmlns="http://www.w3.org/2000/svg" width="32" height="32" viewBox="0 0 32 32" fill="none"><path d="M12.8 20.834L14.2333 19.4007L10.8667 16.0007L14.2333 12.634L12.8 11.2007L8 16.0007L12.8 20.834ZM19.2 20.834L24.0333 16.0007L19.2333 11.2007L17.8 12.634L21.1667 16.0007L17.7667 19.4007L19.2 20.834ZM6 28.0006C5.44444 28.0006 4.97222 27.8062 4.58333 27.4173C4.19444 27.0284 4 26.5562 4 26.0007V6.00065C4 5.4451 4.19444 4.97287 4.58333 4.58398C4.97222 4.1951 5.44444 4.00065 6 4.00065H12.8333C12.9444 3.22287 13.3 2.58398 13.9 2.08398C14.5 1.58398 15.2 1.33398 16 1.33398C16.8 1.33398 17.5 1.58398 18.1 2.08398C18.7 2.58398 19.0556 3.22287 19.1667 4.00065H26C26.5556 4.00065 27.0278 4.1951 27.4167 4.58398C27.8056 4.97287 28 5.4451 28 6.00065V26.0007C28 26.5562 27.8056 27.0284 27.4167 27.4173C27.0278 27.8062 26.5556 28.0006 26 28.0006H6ZM16 5.43398C16.3111 5.43398 16.5833 5.31732 16.8167 5.08398C17.05 4.85065 17.1667 4.57843 17.1667 4.26732C17.1667 3.95621 17.05 3.68398 16.8167 3.45065C16.5833 3.21732 16.3111 3.10065 16 3.10065C15.6889 3.10065 15.4167 3.21732 15.1833 3.45065C14.95 3.68398 14.8333 3.95621 14.8333 4.26732C14.8333 4.57843 14.95 4.85065 15.1833 5.08398C15.4167 5.31732 15.6889 5.43398 16 5.43398Z" fill="#8624FF"></path></svg>