<svg xmlns="http://www.w3.org/2000/svg" width="132" height="132" viewBox="0 0 132 132" fill="none"><rect width="132" height="132" rx="12" fill="black"></rect><rect x="0.5" y="0.5" width="131" height="131" rx="11.5" fill="url(#paint0_linear_5058_138921)" stroke="url(#paint1_linear_5058_138921)"></rect><path fill-rule="evenodd" clip-rule="evenodd" d="M53.1602 30.4974C53.1602 31.2307 53.7602 31.8307 54.4935 31.8307H55.8268L60.6268 41.9507L58.8268 45.2041C57.8535 46.9907 59.1335 49.1641 61.1602 49.1641H75.8268C76.5602 49.1641 77.1602 48.5641 77.1602 47.8307C77.1602 47.0974 76.5602 46.4974 75.8268 46.4974H61.1602L62.6268 43.8307H72.5602C73.5602 43.8307 74.4402 43.2841 74.8935 42.4574L79.6668 33.8041C80.1602 32.9241 79.5202 31.8307 78.5068 31.8307H58.7735L57.8802 29.9241C57.6668 29.4574 57.1868 29.1641 56.6802 29.1641H54.4935C53.7602 29.1641 53.1602 29.7641 53.1602 30.4974ZM61.1611 50.5C59.6945 50.5 58.5078 51.7 58.5078 53.1667C58.5078 54.6333 59.6945 55.8333 61.1611 55.8333C62.6278 55.8333 63.8278 54.6333 63.8278 53.1667C63.8278 51.7 62.6278 50.5 61.1611 50.5ZM71.8398 53.1667C71.8398 51.7 73.0265 50.5 74.4932 50.5C75.9598 50.5 77.1598 51.7 77.1598 53.1667C77.1598 54.6333 75.9598 55.8333 74.4932 55.8333C73.0265 55.8333 71.8398 54.6333 71.8398 53.1667Z" fill="#35DC7D"></path><path d="M46.0794 82.628C49.2314 82.628 51.7754 80.052 51.7594 76.9C51.7434 73.748 49.2154 71.172 46.0794 71.172C42.9274 71.172 40.3834 73.748 40.3834 76.9C40.3834 80.052 42.9114 82.628 46.0794 82.628ZM46.0794 80.836C43.8874 80.836 42.2874 79.076 42.2874 76.9C42.2874 74.724 43.9194 72.964 46.0794 72.964C48.2554 72.964 49.8554 74.74 49.8554 76.9C49.8554 79.076 48.2554 80.836 46.0794 80.836ZM53.2514 82.5H55.0914V78.196C55.0914 76.356 56.6754 75.428 58.3554 75.94V73.988C56.6754 73.716 55.5874 74.42 55.0914 75.412V74.02H53.2514V82.5ZM63.1748 82.644C64.3428 82.644 65.2868 82.116 65.9108 81.364V82.5H67.7508V71.3H65.9108V75.156C65.2868 74.388 64.3268 73.876 63.1748 73.876C60.8548 73.876 58.9508 75.796 58.9508 78.26C58.9508 80.628 60.8548 82.644 63.1748 82.644ZM63.3348 80.964C61.8148 80.964 60.6788 79.716 60.6788 78.26C60.6788 76.772 61.8308 75.54 63.3348 75.54C64.8228 75.54 66.0228 76.788 66.0228 78.26C66.0228 79.716 64.8068 80.964 63.3348 80.964ZM73.6797 82.628C75.2797 82.628 76.9757 81.764 77.6637 80.372L76.0317 79.94C75.4717 80.596 74.5757 80.98 73.6797 80.98C72.4157 80.98 71.3597 80.212 71.1517 78.932H77.9677C78.0637 78.452 78.0477 77.956 77.9517 77.492C77.5837 75.444 75.8237 73.876 73.6797 73.876C71.2957 73.876 69.3277 75.796 69.3277 78.244C69.3277 80.628 71.2317 82.628 73.6797 82.628ZM71.1517 77.508C71.3597 76.436 72.3197 75.508 73.6637 75.508C75.0077 75.508 75.9517 76.436 76.1597 77.508H71.1517ZM79.3821 82.5H81.2221V78.196C81.2221 76.356 82.8061 75.428 84.4861 75.94V73.988C82.8061 73.716 81.7181 74.42 81.2221 75.412V74.02H79.3821V82.5ZM89.3239 82.628C91.0199 82.628 92.7319 81.908 92.7319 80.1C92.7319 78.9 91.9959 78.02 89.9159 77.54C88.4759 77.204 87.5159 77.092 87.5159 76.42C87.5159 75.844 88.2039 75.46 89.0999 75.46C89.9799 75.46 91.1479 75.78 92.3639 76.5V74.804C91.5799 74.372 90.4919 73.876 89.0999 73.876C87.2439 73.876 85.6599 74.788 85.6599 76.42C85.6599 77.78 86.6999 78.452 88.7159 78.884C90.2519 79.22 90.8919 79.524 90.8919 80.084C90.8919 80.66 90.2359 81.028 89.3239 81.028C87.8999 81.028 86.4599 80.212 85.8039 79.652V81.556C86.9239 82.228 88.1079 82.628 89.3239 82.628ZM19.6266 101.904H20.4186C19.5906 101.016 18.5106 98.976 18.5106 96.804C18.5106 94.62 19.6146 92.568 20.4306 91.692H19.6506C18.6306 92.712 17.6346 94.62 17.6346 96.804C17.6346 98.964 18.6186 100.872 19.6266 101.904ZM21.1522 100.512H23.9602C26.3962 100.512 28.2562 98.688 28.2562 96.3C28.2442 93.9 26.3602 92.088 23.9602 92.088H21.1522V100.512ZM22.2082 99.516V93.072H23.9602C25.8562 93.072 27.2122 94.428 27.2122 96.3C27.2122 98.124 25.8802 99.516 23.9602 99.516H22.2082ZM30.0385 93.132C30.4465 93.132 30.7585 92.82 30.7585 92.424C30.7585 92.016 30.4465 91.704 30.0385 91.704C29.6425 91.704 29.3185 92.016 29.3185 92.424C29.3185 92.82 29.6425 93.132 30.0385 93.132ZM29.5105 100.5H30.5305V94.14H29.5105V100.5ZM31.9686 100.5H32.9886V97.296C32.9886 95.676 34.1886 94.836 35.5926 95.196V94.116C34.2846 93.912 33.3726 94.464 32.9886 95.388V94.14H31.9686V100.5ZM39.2479 100.596C40.4719 100.596 41.6839 99.912 42.1999 98.868L41.2759 98.652C40.8319 99.276 40.0639 99.672 39.2479 99.672C38.0839 99.672 37.1239 98.88 37.0039 97.68H42.4519C42.4999 97.428 42.4879 97.128 42.4399 96.852C42.2119 95.28 40.8919 94.032 39.2479 94.032C37.4479 94.032 35.9839 95.484 35.9839 97.308C35.9839 99.108 37.4119 100.596 39.2479 100.596ZM37.0039 96.876C37.1359 95.82 38.0359 94.944 39.2359 94.944C40.4239 94.944 41.2999 95.82 41.4439 96.876H37.0039ZM46.5604 100.596C47.9284 100.596 49.0684 99.744 49.5364 98.556L48.5764 98.328C48.2284 99.108 47.4844 99.66 46.5604 99.66C45.2884 99.66 44.2684 98.616 44.2684 97.308C44.2684 96.024 45.2644 94.956 46.5604 94.956C47.4724 94.956 48.2284 95.52 48.5764 96.3L49.5364 96.072C49.0684 94.872 47.9284 94.032 46.5604 94.032C44.7604 94.032 43.2964 95.484 43.2964 97.308C43.2964 99.084 44.7004 100.596 46.5604 100.596ZM54.4939 100.464V99.48C53.0899 99.912 52.4059 99.516 52.4059 98.508L52.4179 95.028H54.4819V94.14H52.4179V92.412H51.4099V94.14H50.0899V95.028H51.4099L51.3979 98.52C51.3979 100.284 52.5979 100.956 54.4939 100.464ZM62.9074 100.596C65.2714 100.596 67.1434 98.664 67.1434 96.3C67.1314 93.924 65.2474 92.004 62.9074 92.004C60.5434 92.004 58.6714 93.936 58.6714 96.3C58.6714 98.664 60.5314 100.596 62.9074 100.596ZM62.9074 99.6C61.0714 99.6 59.7274 98.112 59.7274 96.3C59.7274 94.476 61.0954 93 62.9074 93C64.7314 93 66.0874 94.488 66.0874 96.3C66.0874 98.124 64.7314 99.6 62.9074 99.6ZM68.285 100.5H69.305V97.296C69.305 95.676 70.505 94.836 71.909 95.196V94.116C70.601 93.912 69.689 94.464 69.305 95.388V94.14H68.285V100.5ZM75.4923 100.608C76.5243 100.608 77.3643 100.08 77.8443 99.336V100.5H78.8643V92.1H77.8443V95.304C77.3643 94.548 76.5123 94.032 75.4923 94.032C73.7283 94.032 72.3003 95.484 72.3003 97.32C72.3003 99.108 73.7283 100.608 75.4923 100.608ZM75.5763 99.672C74.2683 99.672 73.2723 98.604 73.2723 97.32C73.2723 96.012 74.2923 94.968 75.5763 94.968C76.8723 94.968 77.9043 96.036 77.9043 97.32C77.9043 98.604 76.8603 99.672 75.5763 99.672ZM83.287 100.596C84.511 100.596 85.723 99.912 86.239 98.868L85.315 98.652C84.871 99.276 84.103 99.672 83.287 99.672C82.123 99.672 81.163 98.88 81.043 97.68H86.491C86.539 97.428 86.527 97.128 86.479 96.852C86.251 95.28 84.931 94.032 83.287 94.032C81.487 94.032 80.023 95.484 80.023 97.308C80.023 99.108 81.451 100.596 83.287 100.596ZM81.043 96.876C81.175 95.82 82.075 94.944 83.275 94.944C84.463 94.944 85.339 95.82 85.483 96.876H81.043ZM87.5155 100.5H88.5355V97.296C88.5355 95.676 89.7355 94.836 91.1395 95.196V94.116C89.8315 93.912 88.9195 94.464 88.5355 95.388V94.14H87.5155V100.5ZM91.0938 101.892H91.8738L92.7498 99.108H91.7058L91.0938 101.892ZM97.1848 100.5H98.2408V97.536L100.773 97.524C102.405 97.524 103.449 96.336 103.449 94.812C103.449 93.324 102.405 92.1 100.773 92.1H97.1848V100.5ZM98.2408 96.588V93.06H100.713C101.829 93.06 102.429 93.816 102.429 94.788C102.429 95.772 101.829 96.576 100.713 96.576L98.2408 96.588ZM108.611 100.596C110.975 100.596 112.847 98.664 112.847 96.3C112.835 93.924 110.951 92.004 108.611 92.004C106.247 92.004 104.375 93.936 104.375 96.3C104.375 98.664 106.235 100.596 108.611 100.596ZM108.611 99.6C106.775 99.6 105.431 98.112 105.431 96.3C105.431 94.476 106.799 93 108.611 93C110.435 93 111.791 94.488 111.791 96.3C111.791 98.124 110.435 99.6 108.611 99.6ZM112.547 101.904H113.327C114.347 100.884 115.343 98.964 115.343 96.792C115.343 94.62 114.359 92.724 113.351 91.692H112.559C113.387 92.58 114.467 94.608 114.467 96.792C114.467 98.964 113.363 101.028 112.547 101.904Z" fill="white"></path><defs><linearGradient id="paint0_linear_5058_138921" x1="36.5" y1="132" x2="36.5" y2="47.5" gradientUnits="userSpaceOnUse"><stop stop-color="#272E3A"></stop><stop offset="1" stop-color="#242C38" stop-opacity="0"></stop></linearGradient><linearGradient id="paint1_linear_5058_138921" x1="66" y1="0" x2="66" y2="132" gradientUnits="userSpaceOnUse"><stop stop-color="#8624FF" stop-opacity="0"></stop><stop offset="1" stop-color="#8624FF"></stop></linearGradient></defs></svg>