<svg xmlns="http://www.w3.org/2000/svg" width="132" height="132" viewBox="0 0 132 132" fill="none"><rect width="132" height="132" rx="12" fill="black"></rect><rect x="0.5" y="0.5" width="131" height="131" rx="11.5" fill="url(#paint0_linear_5058_138909)" stroke="url(#paint1_linear_5058_138909)"></rect><path fill-rule="evenodd" clip-rule="evenodd" d="M71.1654 27.3359H56.4987C55.032 27.3359 53.832 28.5359 53.832 30.0026V47.3359C53.832 48.0693 54.432 48.6693 55.1654 48.6693C55.8987 48.6693 56.4987 48.0693 56.4987 47.3359V31.3359C56.4987 30.6026 57.0987 30.0026 57.832 30.0026H71.1654C71.8987 30.0026 72.4987 29.4026 72.4987 28.6693C72.4987 27.9359 71.8987 27.3359 71.1654 27.3359ZM71.9507 33.4585L78.3907 39.8985C78.8841 40.3919 79.1641 41.0719 79.1641 41.7785V54.0052C79.1641 55.4719 77.9641 56.6719 76.4974 56.6719H61.8174C60.3507 56.6719 59.1641 55.4719 59.1641 54.0052L59.1774 35.3385C59.1774 33.8719 60.3641 32.6719 61.8307 32.6719H70.0574C70.7641 32.6719 71.4441 32.9519 71.9507 33.4585ZM77.1654 42.0052H71.1654C70.432 42.0052 69.832 41.4052 69.832 40.6719V34.6719L77.1654 42.0052Z" fill="#A256FF"></path><path d="M31.0768 82H32.9808V78.272L35.9408 78.256C38.1328 78.24 39.7008 76.624 39.7008 74.544C39.7008 72.512 38.1328 70.8 35.9408 70.8H31.0768V82ZM32.9808 76.56V72.528L35.8128 72.512C37.0928 72.512 37.8608 73.376 37.8608 74.48C37.8608 75.6 37.0928 76.544 35.8128 76.544L32.9808 76.56ZM44.6276 82.144C45.8596 82.144 46.7396 81.568 47.2836 80.864V82H49.1236V73.52H47.2836V77.872C47.2836 79.328 46.3556 80.416 44.9956 80.416C43.8916 80.416 42.9156 79.6 42.9156 78.208V73.52H41.0756V78.704C41.0756 80.864 42.7716 82.144 44.6276 82.144ZM50.9536 82H52.7936V77.696C52.7936 75.856 54.3776 74.928 56.0576 75.44V73.488C54.3776 73.216 53.2896 73.92 52.7936 74.912V73.52H50.9536V82ZM61.005 82.128C62.845 82.128 64.381 80.976 65.005 79.376L63.309 78.928C62.909 79.824 62.077 80.464 61.005 80.464C59.533 80.464 58.381 79.232 58.381 77.744C58.381 76.288 59.517 75.024 61.005 75.024C62.061 75.024 62.909 75.68 63.309 76.576L65.005 76.128C64.365 74.496 62.829 73.376 61.005 73.376C58.621 73.376 56.653 75.296 56.653 77.744C56.653 80.112 58.541 82.128 61.005 82.128ZM66.412 82H68.252V77.632C68.252 76.192 69.164 75.088 70.524 75.088C71.644 75.088 72.604 75.888 72.604 77.296V82H74.444V76.8C74.444 74.64 72.748 73.376 70.892 73.376C69.66 73.376 68.78 73.952 68.252 74.64V70.8H66.412V82ZM79.125 82.128C80.741 82.128 81.701 81.184 82.037 80.72V82H83.781V76.128C83.781 74.448 81.989 73.376 79.941 73.376C77.925 73.376 76.229 74.384 76.181 76.112L77.941 76.08C78.165 75.184 79.093 74.928 79.973 74.928C81.109 74.928 82.037 75.36 82.037 76.352V76.864H79.461C77.205 76.864 75.941 77.776 75.957 79.52C75.973 81.536 77.765 82.128 79.125 82.128ZM79.269 80.608C78.629 80.608 77.877 80.352 77.797 79.568C77.717 78.832 78.309 78.192 79.781 78.192H82.037C82.037 79.536 80.629 80.608 79.269 80.608ZM89.0261 82.128C90.7221 82.128 92.4341 81.408 92.4341 79.6C92.4341 78.4 91.6981 77.52 89.6181 77.04C88.1781 76.704 87.2181 76.592 87.2181 75.92C87.2181 75.344 87.9061 74.96 88.8021 74.96C89.6821 74.96 90.8501 75.28 92.0661 76V74.304C91.2821 73.872 90.1941 73.376 88.8021 73.376C86.9461 73.376 85.3621 74.288 85.3621 75.92C85.3621 77.28 86.4021 77.952 88.4181 78.384C89.9541 78.72 90.5941 79.024 90.5941 79.584C90.5941 80.16 89.9381 80.528 89.0261 80.528C87.6021 80.528 86.1621 79.712 85.5061 79.152V81.056C86.6261 81.728 87.8101 82.128 89.0261 82.128ZM97.8406 82.128C99.4406 82.128 101.137 81.264 101.825 79.872L100.193 79.44C99.6326 80.096 98.7366 80.48 97.8406 80.48C96.5766 80.48 95.5206 79.712 95.3126 78.432H102.129C102.225 77.952 102.209 77.456 102.113 76.992C101.745 74.944 99.9846 73.376 97.8406 73.376C95.4566 73.376 93.4886 75.296 93.4886 77.744C93.4886 80.128 95.3926 82.128 97.8406 82.128ZM95.3126 77.008C95.5206 75.936 96.4806 75.008 97.8246 75.008C99.1686 75.008 100.113 75.936 100.321 77.008H95.3126ZM21.5827 102H23.4867V98.048H25.8867L28.3027 102H30.3507L27.7907 97.824C29.1987 97.392 30.2067 96.08 30.2067 94.496C30.2067 92.512 28.6387 90.8 26.4467 90.8H21.5827V102ZM23.4867 96.4V92.512H26.4467C27.5987 92.512 28.3667 93.376 28.3667 94.448C28.3667 95.6 27.4867 96.4 26.3667 96.4H23.4867ZM35.6009 102.128C37.2009 102.128 38.8969 101.264 39.5849 99.872L37.9529 99.44C37.3929 100.096 36.4969 100.48 35.6009 100.48C34.3369 100.48 33.2809 99.712 33.0729 98.432H39.8889C39.9849 97.952 39.9689 97.456 39.8729 96.992C39.5049 94.944 37.7449 93.376 35.6009 93.376C33.2169 93.376 31.2489 95.296 31.2489 97.744C31.2489 100.128 33.1529 102.128 35.6009 102.128ZM33.0729 97.008C33.2809 95.936 34.2409 95.008 35.5849 95.008C36.9289 95.008 37.8729 95.936 38.0809 97.008H33.0729ZM48.0233 105.36H49.8633V93.52H48.0233V94.624C47.3993 93.888 46.4553 93.376 45.2873 93.376C42.9673 93.376 41.0633 95.376 41.0633 97.744C41.0633 100.208 42.9673 102.128 45.2873 102.128C46.4393 102.128 47.3993 101.616 48.0233 100.848V105.36ZM45.4473 100.464C43.9433 100.464 42.7913 99.232 42.7913 97.744C42.7913 96.288 43.9273 95.056 45.4473 95.056C46.9193 95.056 48.1353 96.288 48.1353 97.744C48.1353 99.216 46.9353 100.464 45.4473 100.464ZM55.1217 102.144C56.3537 102.144 57.2337 101.568 57.7777 100.864V102H59.6177V93.52H57.7777V97.872C57.7777 99.328 56.8497 100.416 55.4897 100.416C54.3857 100.416 53.4097 99.6 53.4097 98.208V93.52H51.5697V98.704C51.5697 100.864 53.2657 102.144 55.1217 102.144ZM62.5037 92.464C63.1757 92.464 63.7037 91.936 63.7037 91.28C63.7037 90.624 63.1757 90.096 62.5037 90.096C61.8477 90.096 61.3197 90.624 61.3197 91.28C61.3197 91.936 61.8477 92.464 62.5037 92.464ZM61.5597 102H63.3997V93.52H61.5597V102ZM68.7333 102.128C70.4293 102.128 72.1413 101.408 72.1413 99.6C72.1413 98.4 71.4053 97.52 69.3253 97.04C67.8853 96.704 66.9253 96.592 66.9253 95.92C66.9253 95.344 67.6133 94.96 68.5093 94.96C69.3893 94.96 70.5573 95.28 71.7733 96V94.304C70.9893 93.872 69.9013 93.376 68.5093 93.376C66.6533 93.376 65.0693 94.288 65.0693 95.92C65.0693 97.28 66.1093 97.952 68.1253 98.384C69.6613 98.72 70.3013 99.024 70.3013 99.584C70.3013 100.16 69.6453 100.528 68.7333 100.528C67.3093 100.528 65.8693 99.712 65.2133 99.152V101.056C66.3333 101.728 67.5173 102.128 68.7333 102.128ZM76.5859 102.128C78.2019 102.128 79.1619 101.184 79.4979 100.72V102H81.2419V96.128C81.2419 94.448 79.4499 93.376 77.4019 93.376C75.3859 93.376 73.6899 94.384 73.6419 96.112L75.4019 96.08C75.6259 95.184 76.5539 94.928 77.4339 94.928C78.5699 94.928 79.4979 95.36 79.4979 96.352V96.864H76.9219C74.6659 96.864 73.4019 97.776 73.4179 99.52C73.4339 101.536 75.2259 102.128 76.5859 102.128ZM76.7299 100.608C76.0899 100.608 75.3379 100.352 75.2579 99.568C75.1779 98.832 75.7699 98.192 77.2419 98.192H79.4979C79.4979 99.536 78.0899 100.608 76.7299 100.608ZM88.4306 101.936V100.16C86.6226 100.784 85.7586 100.224 85.7586 99.248L85.7746 95.104H88.3666V93.52H85.7746V91.424H83.9666L83.9506 93.52H82.3506V95.104H83.9506L83.9346 99.264C83.9346 101.712 85.8546 102.656 88.4306 101.936ZM90.9799 92.464C91.6519 92.464 92.1799 91.936 92.1799 91.28C92.1799 90.624 91.6519 90.096 90.9799 90.096C90.3239 90.096 89.7959 90.624 89.7959 91.28C89.7959 91.936 90.3239 92.464 90.9799 92.464ZM90.0359 102H91.8759V93.52H90.0359V102ZM97.8496 102.128C100.25 102.128 102.202 100.144 102.202 97.744C102.202 95.36 100.266 93.376 97.8496 93.376C95.4336 93.376 93.4976 95.344 93.4976 97.744C93.4976 100.128 95.4336 102.128 97.8496 102.128ZM97.8496 100.432C96.3776 100.432 95.2096 99.216 95.2096 97.744C95.2096 96.272 96.3616 95.056 97.8496 95.056C99.3216 95.056 100.49 96.272 100.49 97.744C100.49 99.2 99.3376 100.432 97.8496 100.432ZM103.553 102H105.393V97.632C105.393 96.192 106.321 95.088 107.681 95.088C108.785 95.088 109.745 95.872 109.745 97.296V102H111.585V96.8C111.585 94.64 109.889 93.376 108.033 93.376C106.817 93.376 105.921 93.952 105.393 94.64V93.52H103.553V102Z" fill="white"></path><defs><linearGradient id="paint0_linear_5058_138909" x1="36.5" y1="132" x2="36.5" y2="47.5" gradientUnits="userSpaceOnUse"><stop stop-color="#272E3A"></stop><stop offset="1" stop-color="#242C38" stop-opacity="0"></stop></linearGradient><linearGradient id="paint1_linear_5058_138909" x1="66" y1="0" x2="66" y2="132" gradientUnits="userSpaceOnUse"><stop stop-color="#8624FF" stop-opacity="0"></stop><stop offset="1" stop-color="#8624FF"></stop></linearGradient></defs></svg>