<svg xmlns="http://www.w3.org/2000/svg" width="132" height="132" viewBox="0 0 132 132" fill="none"><rect width="132" height="132" rx="12" fill="black"></rect><rect x="0.5" y="0.5" width="131" height="131" rx="11.5" fill="url(#paint0_linear_5058_138945)" stroke="url(#paint1_linear_5058_138945)"></rect><path d="M81.1654 46.6693V60.0026C81.1654 61.4693 79.9654 62.6693 78.4987 62.6693H57.1654C56.432 62.6693 55.832 62.0693 55.832 61.3359C55.832 60.6026 56.432 60.0026 57.1654 60.0026H78.4987V46.6693C78.4987 45.9359 79.0987 45.3359 79.832 45.3359C80.5654 45.3359 81.1654 45.9359 81.1654 46.6693ZM55.832 57.3359C53.6187 57.3359 51.832 55.5493 51.832 53.3359V45.3359C51.832 43.1226 53.6187 41.3359 55.832 41.3359H71.832C74.0454 41.3359 75.832 43.1226 75.832 45.3359V54.6693C75.832 56.1359 74.632 57.3359 73.1654 57.3359H55.832ZM59.832 49.3359C59.832 51.5493 61.6187 53.3359 63.832 53.3359C66.0454 53.3359 67.832 51.5493 67.832 49.3359C67.832 47.1226 66.0454 45.3359 63.832 45.3359C61.6187 45.3359 59.832 47.1226 59.832 49.3359Z" fill="#FF2F3F"></path><path d="M28.8277 92H30.7317V88.272L33.6917 88.256C35.8837 88.24 37.4517 86.624 37.4517 84.544C37.4517 82.512 35.8837 80.8 33.6917 80.8H28.8277V92ZM30.7317 86.56V82.528L33.5637 82.512C34.8437 82.512 35.6117 83.376 35.6117 84.48C35.6117 85.6 34.8437 86.544 33.5637 86.544L30.7317 86.56ZM41.6184 92.128C43.2344 92.128 44.1944 91.184 44.5304 90.72V92H46.2744V86.128C46.2744 84.448 44.4824 83.376 42.4344 83.376C40.4184 83.376 38.7224 84.384 38.6744 86.112L40.4344 86.08C40.6584 85.184 41.5864 84.928 42.4664 84.928C43.6024 84.928 44.5304 85.36 44.5304 86.352V86.864H41.9544C39.6984 86.864 38.4344 87.776 38.4504 89.52C38.4664 91.536 40.2584 92.128 41.6184 92.128ZM41.7624 90.608C41.1224 90.608 40.3704 90.352 40.2904 89.568C40.2104 88.832 40.8024 88.192 42.2744 88.192H44.5304C44.5304 89.536 43.1224 90.608 41.7624 90.608ZM49.0984 95.36H50.9864L55.7064 83.52H53.7704L51.3864 89.888L48.8744 83.52H46.9384L50.4744 91.952L49.0984 95.36ZM56.9111 92H58.7511V87.456C58.7511 86.192 59.3591 85.056 60.7351 85.056C61.8231 85.056 62.4471 85.888 62.4471 87.232V92H64.2871V87.2C64.3511 86.048 64.9751 85.056 66.2551 85.056C67.3591 85.056 67.9671 85.888 67.9671 87.232V92H69.8071V86.8C69.8071 84.576 68.2391 83.376 66.6231 83.376C65.5031 83.376 64.3991 83.952 63.7591 84.976C63.1991 83.92 62.1751 83.376 61.1031 83.376C60.0151 83.376 59.2471 83.92 58.7511 84.608V83.52H56.9111V92ZM75.5078 92.128C77.1078 92.128 78.8038 91.264 79.4918 89.872L77.8598 89.44C77.2998 90.096 76.4038 90.48 75.5078 90.48C74.2438 90.48 73.1878 89.712 72.9798 88.432H79.7958C79.8918 87.952 79.8758 87.456 79.7798 86.992C79.4118 84.944 77.6518 83.376 75.5078 83.376C73.1238 83.376 71.1558 85.296 71.1558 87.744C71.1558 90.128 73.0598 92.128 75.5078 92.128ZM72.9798 87.008C73.1878 85.936 74.1478 85.008 75.4918 85.008C76.8358 85.008 77.7798 85.936 77.9878 87.008H72.9798ZM81.2102 92H83.0502V87.632C83.0502 86.192 83.9782 85.088 85.3382 85.088C86.4422 85.088 87.4022 85.872 87.4022 87.296V92H89.2422V86.8C89.2422 84.64 87.5462 83.376 85.6902 83.376C84.4742 83.376 83.5782 83.952 83.0502 84.64V83.52H81.2102V92ZM96.3143 91.936V90.16C94.5063 90.784 93.6423 90.224 93.6423 89.248L93.6583 85.104H96.2503V83.52H93.6583V81.424H91.8503L91.8343 83.52H90.2343V85.104H91.8343L91.8183 89.264C91.8183 91.712 93.7383 92.656 96.3143 91.936ZM101.248 92.128C102.944 92.128 104.656 91.408 104.656 89.6C104.656 88.4 103.92 87.52 101.84 87.04C100.4 86.704 99.4397 86.592 99.4397 85.92C99.4397 85.344 100.128 84.96 101.024 84.96C101.904 84.96 103.072 85.28 104.288 86V84.304C103.504 83.872 102.416 83.376 101.024 83.376C99.1677 83.376 97.5837 84.288 97.5837 85.92C97.5837 87.28 98.6237 87.952 100.64 88.384C102.176 88.72 102.816 89.024 102.816 89.584C102.816 90.16 102.16 90.528 101.248 90.528C99.8237 90.528 98.3837 89.712 97.7277 89.152V91.056C98.8477 91.728 100.032 92.128 101.248 92.128Z" fill="white"></path><defs><linearGradient id="paint0_linear_5058_138945" x1="36.5" y1="132" x2="36.5" y2="47.5" gradientUnits="userSpaceOnUse"><stop stop-color="#272E3A"></stop><stop offset="1" stop-color="#242C38" stop-opacity="0"></stop></linearGradient><linearGradient id="paint1_linear_5058_138945" x1="66" y1="0" x2="66" y2="132" gradientUnits="userSpaceOnUse"><stop stop-color="#8624FF"></stop><stop offset="1" stop-color="#8624FF" stop-opacity="0"></stop></linearGradient></defs></svg>