<svg xmlns="http://www.w3.org/2000/svg" width="132" height="132" viewBox="0 0 132 132" fill="none"><rect width="132" height="132" rx="12" fill="black"></rect><rect x="0.5" y="0.5" width="131" height="131" rx="11.5" fill="url(#paint0_linear_5058_138927)" stroke="url(#paint1_linear_5058_138927)"></rect><path fill-rule="evenodd" clip-rule="evenodd" d="M55.8333 30.5H77.1667C77.9 30.5 78.5 31.1 78.5 31.8333V53.1667C78.5 53.9 77.9 54.5 77.1667 54.5H55.8333C55.1 54.5 54.5 53.9 54.5 53.1667V31.8333C54.5 31.1 55.1 30.5 55.8333 30.5ZM59.832 35.8359H62.4987V38.5026H59.832V35.8359ZM66.5013 38.5026H71.8346C72.568 38.5026 73.168 37.9026 73.168 37.1693C73.168 36.4359 72.568 35.8359 71.8346 35.8359H66.5013C65.768 35.8359 65.168 36.4359 65.168 37.1693C65.168 37.9026 65.768 38.5026 66.5013 38.5026ZM66.5013 43.8307H71.8346C72.568 43.8307 73.168 43.2307 73.168 42.4974C73.168 41.7641 72.568 41.1641 71.8346 41.1641H66.5013C65.768 41.1641 65.168 41.7641 65.168 42.4974C65.168 43.2307 65.768 43.8307 66.5013 43.8307ZM71.8346 49.1667H66.5013C65.768 49.1667 65.168 48.5667 65.168 47.8333C65.168 47.1 65.768 46.5 66.5013 46.5H71.8346C72.568 46.5 73.168 47.1 73.168 47.8333C73.168 48.5667 72.568 49.1667 71.8346 49.1667ZM62.4987 41.1641H59.832V43.8307H62.4987V41.1641ZM59.832 46.5H62.4987V49.1667H59.832V46.5Z" fill="#005CE6"></path><path d="M55.6667 82.628C58.7707 82.628 61.0427 80.26 61.0427 77.06V76.372H55.6667L55.6987 77.988H59.1867C58.7547 79.748 57.3627 80.804 55.6667 80.804C53.4747 80.804 51.8907 79.076 51.8907 76.9C51.8907 74.724 53.4907 72.996 55.6667 72.996C57.1547 72.996 58.3387 73.812 58.9307 75.092L60.7547 74.596C59.8747 72.564 58.0027 71.172 55.6667 71.172C52.5147 71.172 49.9867 73.748 49.9867 76.9C49.9867 80.052 52.4987 82.628 55.6667 82.628ZM62.5452 82.5H64.4492V78.548H66.8492L69.2652 82.5H71.3132L68.7532 78.324C70.1612 77.892 71.1692 76.58 71.1692 74.996C71.1692 73.012 69.6012 71.3 67.4092 71.3H62.5452V82.5ZM64.4492 76.9V73.012H67.4092C68.5612 73.012 69.3292 73.876 69.3292 74.948C69.3292 76.1 68.4492 76.9 67.3292 76.9H64.4492ZM72.8919 82.5H74.7479V72.58L79.3719 82.5H82.5399V71.3H80.6839V81.012L76.1399 71.3H72.8919V82.5ZM7.46839 101.904H8.26039C7.43239 101.016 6.35239 98.976 6.35239 96.804C6.35239 94.62 7.45639 92.568 8.27239 91.692H7.49239C6.47239 92.712 5.47639 94.62 5.47639 96.804C5.47639 98.964 6.46039 100.872 7.46839 101.904ZM12.2994 100.596C14.6514 100.596 16.2954 98.772 16.2954 96.384V96.036H12.2754L12.2874 96.936H15.2514C14.9994 98.508 13.8594 99.576 12.2994 99.576C10.4514 99.576 9.11942 98.112 9.11942 96.3C9.11942 94.476 10.4634 93.012 12.2994 93.012C13.6194 93.012 14.5914 93.78 15.0714 94.908L16.1034 94.656C15.4674 93.096 14.0634 92.004 12.2994 92.004C9.93542 92.004 8.06342 93.936 8.06342 96.3C8.06342 98.664 9.91142 100.596 12.2994 100.596ZM20.4563 100.596C22.2683 100.596 23.7203 99.108 23.7203 97.308C23.7203 95.532 22.2803 94.032 20.4563 94.032C18.6443 94.032 17.2043 95.508 17.2043 97.308C17.2043 99.108 18.6443 100.596 20.4563 100.596ZM20.4563 99.648C19.1843 99.648 18.1643 98.616 18.1643 97.308C18.1643 96.024 19.1723 94.968 20.4563 94.968C21.7403 94.968 22.7603 96.024 22.7603 97.308C22.7603 98.592 21.7523 99.648 20.4563 99.648ZM27.7923 100.596C29.6043 100.596 31.0563 99.108 31.0563 97.308C31.0563 95.532 29.6163 94.032 27.7923 94.032C25.9803 94.032 24.5403 95.508 24.5403 97.308C24.5403 99.108 25.9803 100.596 27.7923 100.596ZM27.7923 99.648C26.5203 99.648 25.5003 98.616 25.5003 97.308C25.5003 96.024 26.5083 94.968 27.7923 94.968C29.0763 94.968 30.0963 96.024 30.0963 97.308C30.0963 98.592 29.0883 99.648 27.7923 99.648ZM35.0802 100.608C36.1122 100.608 36.9522 100.08 37.4322 99.336V100.5H38.4522V92.1H37.4322V95.304C36.9522 94.548 36.1002 94.032 35.0802 94.032C33.3162 94.032 31.8882 95.484 31.8882 97.32C31.8882 99.108 33.3162 100.608 35.0802 100.608ZM35.1642 99.672C33.8562 99.672 32.8602 98.604 32.8602 97.32C32.8602 96.012 33.8802 94.968 35.1642 94.968C36.4602 94.968 37.4922 96.036 37.4922 97.32C37.4922 98.604 36.4482 99.672 35.1642 99.672ZM42.3709 100.596C43.7269 100.596 44.8309 99.972 44.8309 98.736C44.8309 97.884 44.3149 97.224 42.5869 96.876C41.3029 96.612 40.6309 96.456 40.6309 95.88C40.6309 95.268 41.3869 94.92 42.1429 94.92C43.0549 94.92 43.8949 95.304 44.6029 95.76V94.752C44.0869 94.452 43.2469 94.032 42.1429 94.032C40.9189 94.032 39.6349 94.68 39.6349 95.88C39.6349 96.876 40.4869 97.344 42.0469 97.68C43.4029 97.968 43.8469 98.28 43.8469 98.748C43.8589 99.264 43.3309 99.708 42.3589 99.708C41.1949 99.708 40.1749 99.108 39.6469 98.568V99.696C40.3789 100.188 41.3029 100.596 42.3709 100.596ZM49.261 100.5H50.317V97.344H52.513L54.469 100.5H55.621L53.569 97.236C54.673 96.984 55.525 96.036 55.525 94.752C55.525 93.336 54.481 92.1 52.849 92.1H49.261V100.5ZM50.317 96.42V93.048H52.849C53.905 93.048 54.505 93.816 54.505 94.728C54.505 95.76 53.737 96.42 52.729 96.42H50.317ZM59.5506 100.596C60.7746 100.596 61.9866 99.912 62.5026 98.868L61.5786 98.652C61.1346 99.276 60.3666 99.672 59.5506 99.672C58.3866 99.672 57.4266 98.88 57.3066 97.68H62.7546C62.8026 97.428 62.7906 97.128 62.7426 96.852C62.5146 95.28 61.1946 94.032 59.5506 94.032C57.7506 94.032 56.2866 95.484 56.2866 97.308C56.2866 99.108 57.7146 100.596 59.5506 100.596ZM57.3066 96.876C57.4386 95.82 58.3386 94.944 59.5386 94.944C60.7266 94.944 61.6026 95.82 61.7466 96.876H57.3066ZM66.8631 100.596C68.2311 100.596 69.3711 99.744 69.8391 98.556L68.8791 98.328C68.5311 99.108 67.7871 99.66 66.8631 99.66C65.5911 99.66 64.5711 98.616 64.5711 97.308C64.5711 96.024 65.5671 94.956 66.8631 94.956C67.7751 94.956 68.5311 95.52 68.8791 96.3L69.8391 96.072C69.3711 94.872 68.2311 94.032 66.8631 94.032C65.0631 94.032 63.5991 95.484 63.5991 97.308C63.5991 99.084 65.0031 100.596 66.8631 100.596ZM73.9178 100.596C75.1418 100.596 76.3538 99.912 76.8698 98.868L75.9458 98.652C75.5018 99.276 74.7338 99.672 73.9178 99.672C72.7538 99.672 71.7938 98.88 71.6738 97.68H77.1218C77.1698 97.428 77.1578 97.128 77.1098 96.852C76.8818 95.28 75.5618 94.032 73.9178 94.032C72.1178 94.032 70.6538 95.484 70.6538 97.308C70.6538 99.108 72.0818 100.596 73.9178 100.596ZM71.6738 96.876C71.8058 95.82 72.7058 94.944 73.9058 94.944C75.0938 94.944 75.9698 95.82 76.1138 96.876H71.6738ZM78.8529 93.132C79.2609 93.132 79.5729 92.82 79.5729 92.424C79.5729 92.016 79.2609 91.704 78.8529 91.704C78.4569 91.704 78.1329 92.016 78.1329 92.424C78.1329 92.82 78.4569 93.132 78.8529 93.132ZM78.3249 100.5H79.3449V94.14H78.3249V100.5ZM82.691 100.5H84.431L86.699 94.14H85.607L83.567 100.128L81.515 94.14H80.423L82.691 100.5ZM90.3827 100.596C91.6067 100.596 92.8187 99.912 93.3347 98.868L92.4107 98.652C91.9667 99.276 91.1987 99.672 90.3827 99.672C89.2187 99.672 88.2587 98.88 88.1387 97.68H93.5867C93.6347 97.428 93.6227 97.128 93.5747 96.852C93.3467 95.28 92.0267 94.032 90.3827 94.032C88.5827 94.032 87.1187 95.484 87.1187 97.308C87.1187 99.108 88.5467 100.596 90.3827 100.596ZM88.1387 96.876C88.2707 95.82 89.1707 94.944 90.3707 94.944C91.5587 94.944 92.4347 95.82 92.5787 96.876H88.1387ZM98.1056 100.5H99.1376V92.508L103.17 100.5H105.126V92.1H104.094V99.996L100.098 92.1H98.1056V100.5ZM109.636 100.596C111.448 100.596 112.9 99.108 112.9 97.308C112.9 95.532 111.46 94.032 109.636 94.032C107.824 94.032 106.384 95.508 106.384 97.308C106.384 99.108 107.824 100.596 109.636 100.596ZM109.636 99.648C108.364 99.648 107.344 98.616 107.344 97.308C107.344 96.024 108.352 94.968 109.636 94.968C110.92 94.968 111.94 96.024 111.94 97.308C111.94 98.592 110.932 99.648 109.636 99.648ZM117.875 100.464V99.48C116.471 99.912 115.787 99.516 115.787 98.508L115.799 95.028H117.863V94.14H115.799V92.412H114.791V94.14H113.471V95.028H114.791L114.779 98.52C114.779 100.284 115.979 100.956 117.875 100.464ZM121.801 100.596C123.025 100.596 124.237 99.912 124.753 98.868L123.829 98.652C123.385 99.276 122.617 99.672 121.801 99.672C120.637 99.672 119.677 98.88 119.557 97.68H125.005C125.053 97.428 125.041 97.128 124.993 96.852C124.765 95.28 123.445 94.032 121.801 94.032C120.001 94.032 118.537 95.484 118.537 97.308C118.537 99.108 119.965 100.596 121.801 100.596ZM119.557 96.876C119.689 95.82 120.589 94.944 121.789 94.944C122.977 94.944 123.853 95.82 123.997 96.876H119.557ZM124.705 101.904H125.485C126.505 100.884 127.501 98.964 127.501 96.792C127.501 94.62 126.517 92.724 125.509 91.692H124.717C125.545 92.58 126.625 94.608 126.625 96.792C126.625 98.964 125.521 101.028 124.705 101.904Z" fill="white"></path><defs><linearGradient id="paint0_linear_5058_138927" x1="36.5" y1="132" x2="36.5" y2="47.5" gradientUnits="userSpaceOnUse"><stop stop-color="#272E3A"></stop><stop offset="1" stop-color="#242C38" stop-opacity="0"></stop></linearGradient><linearGradient id="paint1_linear_5058_138927" x1="66" y1="0" x2="66" y2="132" gradientUnits="userSpaceOnUse"><stop stop-color="#8624FF"></stop><stop offset="1" stop-color="#8624FF" stop-opacity="0"></stop></linearGradient></defs></svg>