<svg xmlns="http://www.w3.org/2000/svg" width="132" height="132" viewBox="0 0 132 132" fill="none"><rect width="132" height="132" rx="12" fill="black"></rect><rect x="0.5" y="0.5" width="131" height="131" rx="11.5" fill="url(#paint0_linear_5058_138933)" stroke="url(#paint1_linear_5058_138933)"></rect><path fill-rule="evenodd" clip-rule="evenodd" d="M71.1654 27.3359H56.4987C55.032 27.3359 53.832 28.5359 53.832 30.0026V47.3359C53.832 48.0693 54.432 48.6693 55.1654 48.6693C55.8987 48.6693 56.4987 48.0693 56.4987 47.3359V31.3359C56.4987 30.6026 57.0987 30.0026 57.832 30.0026H71.1654C71.8987 30.0026 72.4987 29.4026 72.4987 28.6693C72.4987 27.9359 71.8987 27.3359 71.1654 27.3359ZM71.9507 33.4585L78.3907 39.8985C78.8841 40.3919 79.1641 41.0719 79.1641 41.7785V54.0052C79.1641 55.4719 77.9641 56.6719 76.4974 56.6719H61.8174C60.3507 56.6719 59.1641 55.4719 59.1641 54.0052L59.1774 35.3385C59.1774 33.8719 60.3641 32.6719 61.8307 32.6719H70.0574C70.7641 32.6719 71.4441 32.9519 71.9507 33.4585ZM77.1654 42.0052H71.1654C70.432 42.0052 69.832 41.4052 69.832 40.6719V34.6719L77.1654 42.0052Z" fill="#A256FF"></path><path d="M31.0768 82H32.9808V78.272L35.9408 78.256C38.1328 78.24 39.7008 76.624 39.7008 74.544C39.7008 72.512 38.1328 70.8 35.9408 70.8H31.0768V82ZM32.9808 76.56V72.528L35.8128 72.512C37.0928 72.512 37.8608 73.376 37.8608 74.48C37.8608 75.6 37.0928 76.544 35.8128 76.544L32.9808 76.56ZM44.6276 82.144C45.8596 82.144 46.7396 81.568 47.2836 80.864V82H49.1236V73.52H47.2836V77.872C47.2836 79.328 46.3556 80.416 44.9956 80.416C43.8916 80.416 42.9156 79.6 42.9156 78.208V73.52H41.0756V78.704C41.0756 80.864 42.7716 82.144 44.6276 82.144ZM50.9536 82H52.7936V77.696C52.7936 75.856 54.3776 74.928 56.0576 75.44V73.488C54.3776 73.216 53.2896 73.92 52.7936 74.912V73.52H50.9536V82ZM61.005 82.128C62.845 82.128 64.381 80.976 65.005 79.376L63.309 78.928C62.909 79.824 62.077 80.464 61.005 80.464C59.533 80.464 58.381 79.232 58.381 77.744C58.381 76.288 59.517 75.024 61.005 75.024C62.061 75.024 62.909 75.68 63.309 76.576L65.005 76.128C64.365 74.496 62.829 73.376 61.005 73.376C58.621 73.376 56.653 75.296 56.653 77.744C56.653 80.112 58.541 82.128 61.005 82.128ZM66.412 82H68.252V77.632C68.252 76.192 69.164 75.088 70.524 75.088C71.644 75.088 72.604 75.888 72.604 77.296V82H74.444V76.8C74.444 74.64 72.748 73.376 70.892 73.376C69.66 73.376 68.78 73.952 68.252 74.64V70.8H66.412V82ZM79.125 82.128C80.741 82.128 81.701 81.184 82.037 80.72V82H83.781V76.128C83.781 74.448 81.989 73.376 79.941 73.376C77.925 73.376 76.229 74.384 76.181 76.112L77.941 76.08C78.165 75.184 79.093 74.928 79.973 74.928C81.109 74.928 82.037 75.36 82.037 76.352V76.864H79.461C77.205 76.864 75.941 77.776 75.957 79.52C75.973 81.536 77.765 82.128 79.125 82.128ZM79.269 80.608C78.629 80.608 77.877 80.352 77.797 79.568C77.717 78.832 78.309 78.192 79.781 78.192H82.037C82.037 79.536 80.629 80.608 79.269 80.608ZM89.0261 82.128C90.7221 82.128 92.4341 81.408 92.4341 79.6C92.4341 78.4 91.6981 77.52 89.6181 77.04C88.1781 76.704 87.2181 76.592 87.2181 75.92C87.2181 75.344 87.9061 74.96 88.8021 74.96C89.6821 74.96 90.8501 75.28 92.0661 76V74.304C91.2821 73.872 90.1941 73.376 88.8021 73.376C86.9461 73.376 85.3621 74.288 85.3621 75.92C85.3621 77.28 86.4021 77.952 88.4181 78.384C89.9541 78.72 90.5941 79.024 90.5941 79.584C90.5941 80.16 89.9381 80.528 89.0261 80.528C87.6021 80.528 86.1621 79.712 85.5061 79.152V81.056C86.6261 81.728 87.8101 82.128 89.0261 82.128ZM97.8406 82.128C99.4406 82.128 101.137 81.264 101.825 79.872L100.193 79.44C99.6326 80.096 98.7366 80.48 97.8406 80.48C96.5766 80.48 95.5206 79.712 95.3126 78.432H102.129C102.225 77.952 102.209 77.456 102.113 76.992C101.745 74.944 99.9846 73.376 97.8406 73.376C95.4566 73.376 93.4886 75.296 93.4886 77.744C93.4886 80.128 95.3926 82.128 97.8406 82.128ZM95.3126 77.008C95.5206 75.936 96.4806 75.008 97.8246 75.008C99.1686 75.008 100.113 75.936 100.321 77.008H95.3126ZM21.5827 102H23.4867V98.048H25.8867L28.3027 102H30.3507L27.7907 97.824C29.1987 97.392 30.2067 96.08 30.2067 94.496C30.2067 92.512 28.6387 90.8 26.4467 90.8H21.5827V102ZM23.4867 96.4V92.512H26.4467C27.5987 92.512 28.3667 93.376 28.3667 94.448C28.3667 95.6 27.4867 96.4 26.3667 96.4H23.4867ZM35.6009 102.128C37.2009 102.128 38.8969 101.264 39.5849 99.872L37.9529 99.44C37.3929 100.096 36.4969 100.48 35.6009 100.48C34.3369 100.48 33.2809 99.712 33.0729 98.432H39.8889C39.9849 97.952 39.9689 97.456 39.8729 96.992C39.5049 94.944 37.7449 93.376 35.6009 93.376C33.2169 93.376 31.2489 95.296 31.2489 97.744C31.2489 100.128 33.1529 102.128 35.6009 102.128ZM33.0729 97.008C33.2809 95.936 34.2409 95.008 35.5849 95.008C36.9289 95.008 37.8729 95.936 38.0809 97.008H33.0729ZM48.0233 105.36H49.8633V93.52H48.0233V94.624C47.3993 93.888 46.4553 93.376 45.2873 93.376C42.9673 93.376 41.0633 95.376 41.0633 97.744C41.0633 100.208 42.9673 102.128 45.2873 102.128C46.4393 102.128 47.3993 101.616 48.0233 100.848V105.36ZM45.4473 100.464C43.9433 100.464 42.7913 99.232 42.7913 97.744C42.7913 96.288 43.9273 95.056 45.4473 95.056C46.9193 95.056 48.1353 96.288 48.1353 97.744C48.1353 99.216 46.9353 100.464 45.4473 100.464ZM55.1217 102.144C56.3537 102.144 57.2337 101.568 57.7777 100.864V102H59.6177V93.52H57.7777V97.872C57.7777 99.328 56.8497 100.416 55.4897 100.416C54.3857 100.416 53.4097 99.6 53.4097 98.208V93.52H51.5697V98.704C51.5697 100.864 53.2657 102.144 55.1217 102.144ZM62.5037 92.464C63.1757 92.464 63.7037 91.936 63.7037 91.28C63.7037 90.624 63.1757 90.096 62.5037 90.096C61.8477 90.096 61.3197 90.624 61.3197 91.28C61.3197 91.936 61.8477 92.464 62.5037 92.464ZM61.5597 102H63.3997V93.52H61.5597V102ZM68.7333 102.128C70.4293 102.128 72.1413 101.408 72.1413 99.6C72.1413 98.4 71.4053 97.52 69.3253 97.04C67.8853 96.704 66.9253 96.592 66.9253 95.92C66.9253 95.344 67.6133 94.96 68.5093 94.96C69.3893 94.96 70.5573 95.28 71.7733 96V94.304C70.9893 93.872 69.9013 93.376 68.5093 93.376C66.6533 93.376 65.0693 94.288 65.0693 95.92C65.0693 97.28 66.1093 97.952 68.1253 98.384C69.6613 98.72 70.3013 99.024 70.3013 99.584C70.3013 100.16 69.6453 100.528 68.7333 100.528C67.3093 100.528 65.8693 99.712 65.2133 99.152V101.056C66.3333 101.728 67.5173 102.128 68.7333 102.128ZM76.5859 102.128C78.2019 102.128 79.1619 101.184 79.4979 100.72V102H81.2419V96.128C81.2419 94.448 79.4499 93.376 77.4019 93.376C75.3859 93.376 73.6899 94.384 73.6419 96.112L75.4019 96.08C75.6259 95.184 76.5539 94.928 77.4339 94.928C78.5699 94.928 79.4979 95.36 79.4979 96.352V96.864H76.9219C74.6659 96.864 73.4019 97.776 73.4179 99.52C73.4339 101.536 75.2259 102.128 76.5859 102.128ZM76.7299 100.608C76.0899 100.608 75.3379 100.352 75.2579 99.568C75.1779 98.832 75.7699 98.192 77.2419 98.192H79.4979C79.4979 99.536 78.0899 100.608 76.7299 100.608ZM88.4306 101.936V100.16C86.6226 100.784 85.7586 100.224 85.7586 99.248L85.7746 95.104H88.3666V93.52H85.7746V91.424H83.9666L83.9506 93.52H82.3506V95.104H83.9506L83.9346 99.264C83.9346 101.712 85.8546 102.656 88.4306 101.936ZM90.9799 92.464C91.6519 92.464 92.1799 91.936 92.1799 91.28C92.1799 90.624 91.6519 90.096 90.9799 90.096C90.3239 90.096 89.7959 90.624 89.7959 91.28C89.7959 91.936 90.3239 92.464 90.9799 92.464ZM90.0359 102H91.8759V93.52H90.0359V102ZM97.8496 102.128C100.25 102.128 102.202 100.144 102.202 97.744C102.202 95.36 100.266 93.376 97.8496 93.376C95.4336 93.376 93.4976 95.344 93.4976 97.744C93.4976 100.128 95.4336 102.128 97.8496 102.128ZM97.8496 100.432C96.3776 100.432 95.2096 99.216 95.2096 97.744C95.2096 96.272 96.3616 95.056 97.8496 95.056C99.3216 95.056 100.49 96.272 100.49 97.744C100.49 99.2 99.3376 100.432 97.8496 100.432ZM103.553 102H105.393V97.632C105.393 96.192 106.321 95.088 107.681 95.088C108.785 95.088 109.745 95.872 109.745 97.296V102H111.585V96.8C111.585 94.64 109.889 93.376 108.033 93.376C106.817 93.376 105.921 93.952 105.393 94.64V93.52H103.553V102Z" fill="white"></path><rect width="132" height="132" rx="12" fill="black"></rect><rect x="0.5" y="0.5" width="131" height="131" rx="11.5" fill="url(#paint2_linear_5058_138933)" stroke="url(#paint3_linear_5058_138933)"></rect><g clip-path="url(#clip0_5058_138933)"><path fill-rule="evenodd" clip-rule="evenodd" d="M76.5 31.1641L74.5 29.1641L72.5 31.1641L70.5 29.1641L68.5 31.1641L66.5 29.1641L64.5 31.1641L62.5 29.1641L60.5 31.1641L58.5 29.1641V47.4141L71.168 47.4141C71.5822 47.4141 71.918 47.7498 71.918 48.1641C71.918 48.2218 71.9114 48.278 71.8991 48.332C71.9114 48.386 71.918 48.4423 71.918 48.5C71.918 50.8149 72.2605 52.2395 72.9108 53.0199C73.4959 53.722 74.4936 54.0743 76.378 53.7602C76.7866 53.6921 77.173 53.9681 77.2411 54.3767C77.2654 54.5225 77.2459 54.6655 77.1921 54.7922C77.9962 54.0611 78.5 53.0061 78.5 51.8307V29.1641L76.5 31.1641ZM76.5868 55.246C74.4891 55.5886 72.8336 55.2703 71.7585 53.9801C70.8025 52.8329 70.4589 51.0759 70.4215 48.9141L54.5237 48.9141C54.5081 48.9951 54.5 49.0787 54.5 49.1641V51.8307C54.5 54.0441 56.2867 55.8307 58.5 55.8307H74.5C75.2654 55.8307 75.9797 55.6171 76.5868 55.246ZM63.8333 38.4948H69.1667C69.9 38.4948 70.5 37.8948 70.5 37.1615C70.5 36.4281 69.9 35.8281 69.1667 35.8281H63.8333C63.1 35.8281 62.5 36.4281 62.5 37.1615C62.5 37.8948 63.1 38.4948 63.8333 38.4948ZM63.8333 42.4948H69.1667C69.9 42.4948 70.5 41.8948 70.5 41.1615C70.5 40.4281 69.9 39.8281 69.1667 39.8281H63.8333C63.1 39.8281 62.5 40.4281 62.5 41.1615C62.5 41.8948 63.1 42.4948 63.8333 42.4948ZM73.1654 38.4948C73.9017 38.4948 74.4987 37.8978 74.4987 37.1615C74.4987 36.4251 73.9017 35.8281 73.1654 35.8281C72.429 35.8281 71.832 36.4251 71.832 37.1615C71.832 37.8978 72.429 38.4948 73.1654 38.4948ZM74.4987 41.1615C74.4987 41.8978 73.9017 42.4948 73.1654 42.4948C72.429 42.4948 71.832 41.8978 71.832 41.1615C71.832 40.4251 72.429 39.8281 73.1654 39.8281C73.9017 39.8281 74.4987 40.4251 74.4987 41.1615Z" fill="#007D99"></path></g><path d="M52.5418 82.5H57.8858C60.1258 82.5 61.4538 81.236 61.4538 79.476C61.4538 78.26 60.8138 77.252 59.5018 76.772C60.4138 76.292 61.0058 75.364 61.0058 74.228C61.0058 72.548 59.7098 71.3 57.5818 71.3H52.5418V82.5ZM54.3818 76.1V73.012H57.5338C58.5578 73.012 59.1978 73.652 59.1978 74.532C59.1978 75.428 58.5098 76.1 57.4858 76.1H54.3818ZM54.3818 80.772V77.652H57.7258C58.7498 77.652 59.5178 78.196 59.5178 79.204C59.5178 80.148 58.8298 80.772 57.7738 80.772H54.3818ZM63.9724 72.964C64.6444 72.964 65.1724 72.436 65.1724 71.78C65.1724 71.124 64.6444 70.596 63.9724 70.596C63.3164 70.596 62.7884 71.124 62.7884 71.78C62.7884 72.436 63.3164 72.964 63.9724 72.964ZM63.0284 82.5H64.8684V74.02H63.0284V82.5ZM66.7941 82.5H68.6341V71.3H66.7941V82.5ZM70.4678 82.5H72.3078V71.3H70.4678V82.5ZM77.5496 82.628C79.2456 82.628 80.9576 81.908 80.9576 80.1C80.9576 78.9 80.2216 78.02 78.1416 77.54C76.7016 77.204 75.7416 77.092 75.7416 76.42C75.7416 75.844 76.4296 75.46 77.3256 75.46C78.2056 75.46 79.3736 75.78 80.5896 76.5V74.804C79.8056 74.372 78.7176 73.876 77.3256 73.876C75.4696 73.876 73.8856 74.788 73.8856 76.42C73.8856 77.78 74.9256 78.452 76.9416 78.884C78.4776 79.22 79.1176 79.524 79.1176 80.084C79.1176 80.66 78.4616 81.028 77.5496 81.028C76.1256 81.028 74.6856 80.212 74.0296 79.652V81.556C75.1496 82.228 76.3336 82.628 77.5496 82.628ZM9.0973 101.904H9.8893C9.0613 101.016 7.9813 98.976 7.9813 96.804C7.9813 94.62 9.0853 92.568 9.9013 91.692H9.1213C8.1013 92.712 7.1053 94.62 7.1053 96.804C7.1053 98.964 8.0893 100.872 9.0973 101.904ZM10.7189 100.5H14.5349C16.1909 100.5 17.1869 99.624 17.1869 98.232C17.1869 97.188 16.6229 96.492 15.6269 96.192C16.3949 95.88 16.8869 95.172 16.8869 94.248C16.8869 92.976 15.9389 92.1 14.3789 92.1H10.7189V100.5ZM11.7389 95.808V93.048H14.3549C15.3029 93.048 15.8789 93.576 15.8789 94.392C15.8789 95.256 15.2429 95.808 14.2949 95.808H11.7389ZM11.7389 99.54V96.684H14.4149C15.3629 96.684 16.1189 97.08 16.1189 98.088C16.1189 99.012 15.4829 99.54 14.4749 99.54H11.7389ZM18.935 93.132C19.343 93.132 19.655 92.82 19.655 92.424C19.655 92.016 19.343 91.704 18.935 91.704C18.539 91.704 18.215 92.016 18.215 92.424C18.215 92.82 18.539 93.132 18.935 93.132ZM18.407 100.5H19.427V94.14H18.407V100.5ZM20.9251 100.5H21.9451V92.1H20.9251V100.5ZM23.386 100.5H24.406V92.1H23.386V100.5ZM28.367 100.596C29.723 100.596 30.827 99.972 30.827 98.736C30.827 97.884 30.311 97.224 28.583 96.876C27.299 96.612 26.627 96.456 26.627 95.88C26.627 95.268 27.383 94.92 28.139 94.92C29.051 94.92 29.891 95.304 30.599 95.76V94.752C30.083 94.452 29.243 94.032 28.139 94.032C26.915 94.032 25.631 94.68 25.631 95.88C25.631 96.876 26.483 97.344 28.043 97.68C29.399 97.968 29.843 98.28 29.843 98.748C29.855 99.264 29.327 99.708 28.355 99.708C27.191 99.708 26.171 99.108 25.643 98.568V99.696C26.375 100.188 27.299 100.596 28.367 100.596ZM37.4771 100.656C38.3291 100.656 39.1811 100.296 39.8771 99.576L40.6451 100.512L41.7731 100.5L40.4291 98.856C40.8251 98.232 41.1131 97.44 41.2691 96.48H40.4411C40.3091 97.092 40.0931 97.644 39.8291 98.124L38.1971 96.132C39.3611 95.364 39.9131 94.608 39.9131 93.744C39.9131 92.664 39.0731 91.908 37.8851 91.908C36.7091 91.908 35.8451 92.664 35.8451 93.744C35.8451 94.284 36.3491 95.268 36.9371 95.976C36.0131 96.588 35.0531 97.272 35.0531 98.472C35.0531 99.744 36.0971 100.656 37.4771 100.656ZM37.6811 95.496C37.2251 94.872 36.7451 94.32 36.7451 93.744C36.7451 93.156 37.2131 92.748 37.8851 92.748C38.5691 92.748 39.0131 93.144 39.0131 93.744C39.0131 94.272 38.5931 94.848 37.6811 95.496ZM37.4771 99.78C36.6131 99.78 35.9531 99.264 35.9531 98.472C35.9531 97.836 36.3731 97.332 37.4651 96.624L39.3131 98.88C38.8091 99.444 38.1851 99.78 37.4771 99.78ZM46.1907 100.5H47.2467V97.536L49.7787 97.524C51.4107 97.524 52.4547 96.336 52.4547 94.812C52.4547 93.324 51.4107 92.1 49.7787 92.1H46.1907V100.5ZM47.2467 96.588V93.06H49.7187C50.8347 93.06 51.4347 93.816 51.4347 94.788C51.4347 95.772 50.8347 96.576 49.7187 96.576L47.2467 96.588ZM53.5604 100.5H54.5804V97.296C54.5804 95.676 55.7804 94.836 57.1844 95.196V94.116C55.8764 93.912 54.9644 94.464 54.5804 95.388V94.14H53.5604V100.5ZM60.8157 100.596C62.6277 100.596 64.0797 99.108 64.0797 97.308C64.0797 95.532 62.6397 94.032 60.8157 94.032C59.0037 94.032 57.5637 95.508 57.5637 97.308C57.5637 99.108 59.0037 100.596 60.8157 100.596ZM60.8157 99.648C59.5437 99.648 58.5237 98.616 58.5237 97.308C58.5237 96.024 59.5317 94.968 60.8157 94.968C62.0997 94.968 63.1197 96.024 63.1197 97.308C63.1197 98.592 62.1117 99.648 60.8157 99.648ZM65.9825 100.5H66.9905V95.028H69.1025V94.14H66.9905V93.936C66.9905 92.916 67.7825 92.46 69.1625 92.844V92.04C67.1465 91.56 65.9705 92.412 65.9705 93.924V94.14H64.6145V95.028H65.9705L65.9825 100.5ZM72.886 100.596C74.698 100.596 76.15 99.108 76.15 97.308C76.15 95.532 74.71 94.032 72.886 94.032C71.074 94.032 69.634 95.508 69.634 97.308C69.634 99.108 71.074 100.596 72.886 100.596ZM72.886 99.648C71.614 99.648 70.594 98.616 70.594 97.308C70.594 96.024 71.602 94.968 72.886 94.968C74.17 94.968 75.19 96.024 75.19 97.308C75.19 98.592 74.182 99.648 72.886 99.648ZM77.162 100.5H78.182V97.296C78.182 95.676 79.382 94.836 80.786 95.196V94.116C79.478 93.912 78.566 94.464 78.182 95.388V94.14H77.162V100.5ZM81.8151 100.5H82.8351V97.044C82.8351 95.976 83.4111 94.968 84.5871 94.968C85.5111 94.968 86.1231 95.676 86.1231 96.924V100.5H87.1431V96.912C87.1791 95.904 87.7551 94.968 88.8831 94.968C89.8311 94.968 90.4191 95.676 90.4191 96.924V100.5H91.4391V96.648C91.4391 94.956 90.3231 94.032 89.0631 94.032C88.1151 94.032 87.2511 94.56 86.8431 95.46C86.4591 94.512 85.6671 94.032 84.7671 94.032C83.8311 94.032 83.1711 94.548 82.8351 95.184V94.14H81.8151V100.5ZM94.8281 100.596C96.3281 100.596 97.0841 99.564 97.2881 99.192V100.5H98.2601V96.096C98.2601 94.824 96.9641 94.032 95.4161 94.032C93.9881 94.032 92.7521 94.716 92.6801 95.976L93.6761 95.964C93.8321 95.148 94.6601 94.884 95.4401 94.884C96.4361 94.884 97.2881 95.316 97.2881 96.216V96.684L95.2361 96.696C93.2801 96.696 92.4641 97.548 92.4881 98.712C92.5121 100.056 93.7001 100.596 94.8281 100.596ZM94.9001 99.732C94.2281 99.732 93.5681 99.42 93.5081 98.736C93.4481 98.124 93.9161 97.464 95.4041 97.452H97.2881C97.2881 98.712 96.1121 99.732 94.9001 99.732ZM106.257 100.608C108.093 100.608 109.449 99.108 109.449 97.32C109.449 95.484 108.057 94.02 106.257 94.032C105.237 94.044 104.385 94.56 103.917 95.316V92.1H102.897V100.5H103.917V99.336C104.385 100.08 105.225 100.608 106.257 100.608ZM106.173 99.672C104.901 99.672 103.857 98.604 103.857 97.32C103.857 96.036 104.889 94.968 106.173 94.968C107.445 94.968 108.489 96.012 108.489 97.32C108.489 98.604 107.457 99.672 106.173 99.672ZM111.173 93.132C111.581 93.132 111.893 92.82 111.893 92.424C111.893 92.016 111.581 91.704 111.173 91.704C110.777 91.704 110.453 92.016 110.453 92.424C110.453 92.82 110.777 93.132 111.173 93.132ZM110.645 100.5H111.665V94.14H110.645V100.5ZM113.163 100.5H114.183V92.1H113.163V100.5ZM115.624 100.5H116.644V92.1H115.624V100.5ZM120.605 100.596C121.961 100.596 123.065 99.972 123.065 98.736C123.065 97.884 122.549 97.224 120.821 96.876C119.537 96.612 118.865 96.456 118.865 95.88C118.865 95.268 119.621 94.92 120.377 94.92C121.289 94.92 122.129 95.304 122.837 95.76V94.752C122.321 94.452 121.481 94.032 120.377 94.032C119.153 94.032 117.869 94.68 117.869 95.88C117.869 96.876 118.721 97.344 120.281 97.68C121.637 97.968 122.081 98.28 122.081 98.748C122.093 99.264 121.565 99.708 120.593 99.708C119.429 99.708 118.409 99.108 117.881 98.568V99.696C118.613 100.188 119.537 100.596 120.605 100.596ZM123.076 101.904H123.856C124.876 100.884 125.872 98.964 125.872 96.792C125.872 94.62 124.888 92.724 123.88 91.692H123.088C123.916 92.58 124.996 94.608 124.996 96.792C124.996 98.964 123.892 101.028 123.076 101.904Z" fill="white"></path><defs><linearGradient id="paint0_linear_5058_138933" x1="36.5" y1="132" x2="36.5" y2="47.5" gradientUnits="userSpaceOnUse"><stop stop-color="#272E3A"></stop><stop offset="1" stop-color="#242C38" stop-opacity="0"></stop></linearGradient><linearGradient id="paint1_linear_5058_138933" x1="66" y1="0" x2="66" y2="132" gradientUnits="userSpaceOnUse"><stop stop-color="#8624FF"></stop><stop offset="1" stop-color="#8624FF" stop-opacity="0"></stop></linearGradient><linearGradient id="paint2_linear_5058_138933" x1="36.5" y1="132" x2="36.5" y2="47.5" gradientUnits="userSpaceOnUse"><stop stop-color="#272E3A"></stop><stop offset="1" stop-color="#242C38" stop-opacity="0"></stop></linearGradient><linearGradient id="paint3_linear_5058_138933" x1="66" y1="0" x2="66" y2="132" gradientUnits="userSpaceOnUse"><stop stop-color="#8624FF" stop-opacity="0"></stop><stop offset="1" stop-color="#8624FF"></stop></linearGradient><clipPath id="clip0_5058_138933"><rect width="32" height="32" fill="white" transform="translate(50.5 26.5)"></rect></clipPath></defs></svg>