<svg xmlns="http://www.w3.org/2000/svg" width="132" height="132" viewBox="0 0 132 132" fill="none"><rect width="132" height="132" rx="12" fill="black"></rect><rect x="0.5" y="0.5" width="131" height="131" rx="11.5" fill="url(#paint0_linear_5058_138915)" stroke="url(#paint1_linear_5058_138915)"></rect><path fill-rule="evenodd" clip-rule="evenodd" d="M67.048 29.9374L79.048 41.9374C79.528 42.4174 79.8346 43.0974 79.8346 43.8307C79.8346 44.5641 79.5413 45.2307 79.048 45.7107L69.7146 55.0441C69.2346 55.5374 68.568 55.8307 67.8346 55.8307C67.1013 55.8307 66.4346 55.5374 65.9546 55.0574L53.9546 43.0574C53.4613 42.5641 53.168 41.8974 53.168 41.1641V31.8307C53.168 30.3641 54.368 29.1641 55.8346 29.1641H65.168C65.9013 29.1641 66.568 29.4574 67.048 29.9374ZM55.8359 33.8281C55.8359 34.9348 56.7293 35.8281 57.8359 35.8281C58.9426 35.8281 59.8359 34.9348 59.8359 33.8281C59.8359 32.7215 58.9426 31.8281 57.8359 31.8281C56.7293 31.8281 55.8359 32.7215 55.8359 33.8281Z" fill="#FFCA1A"></path><path d="M31.7261 82.5H39.7101V80.724H33.6301V77.748H39.0701V76.036H33.6301V73.06H39.7101V71.3H31.7261V82.5ZM40.8939 78.74H46.7019V77.076H40.8939V78.74ZM52.5625 82.628C54.7385 82.66 56.6585 81.54 56.6585 79.428C56.6585 78.084 55.8905 76.756 53.0585 76.084C51.1865 75.652 49.9225 75.316 49.9225 74.372C49.9225 73.476 50.8825 72.9 52.0985 72.9C53.5545 72.9 55.2025 73.588 56.2745 74.34V72.356C55.3785 71.828 53.9225 71.172 52.0985 71.172C49.8585 71.172 48.0345 72.436 48.0345 74.388C48.0345 75.972 49.1865 76.916 51.7305 77.524C53.6825 77.988 54.7705 78.516 54.7705 79.428C54.7705 80.212 54.0025 80.836 52.6425 80.836C51.1065 80.836 49.4105 80.052 48.0825 79.06V81.092C49.4265 82.052 51.0105 82.612 52.5625 82.628ZM62.1536 82.628C64.5536 82.628 66.5056 80.644 66.5056 78.244C66.5056 75.86 64.5696 73.876 62.1536 73.876C59.7376 73.876 57.8016 75.844 57.8016 78.244C57.8016 80.628 59.7376 82.628 62.1536 82.628ZM62.1536 80.932C60.6816 80.932 59.5136 79.716 59.5136 78.244C59.5136 76.772 60.6656 75.556 62.1536 75.556C63.6256 75.556 64.7936 76.772 64.7936 78.244C64.7936 79.7 63.6416 80.932 62.1536 80.932ZM71.4389 82.644C72.6709 82.644 73.5509 82.068 74.0949 81.364V82.5H75.9349V74.02H74.0949V78.372C74.0949 79.828 73.1669 80.916 71.8069 80.916C70.7029 80.916 69.7269 80.1 69.7269 78.708V74.02H67.8869V79.204C67.8869 81.364 69.5829 82.644 71.4389 82.644ZM77.7649 82.5H79.6049V78.196C79.6049 76.356 81.1889 75.428 82.8689 75.94V73.988C81.1889 73.716 80.1009 74.42 79.6049 75.412V74.02H77.7649V82.5ZM87.8162 82.628C89.6562 82.628 91.1922 81.476 91.8162 79.876L90.1202 79.428C89.7202 80.324 88.8882 80.964 87.8162 80.964C86.3442 80.964 85.1922 79.732 85.1922 78.244C85.1922 76.788 86.3282 75.524 87.8162 75.524C88.8722 75.524 89.7202 76.18 90.1202 77.076L91.8162 76.628C91.1762 74.996 89.6402 73.876 87.8162 73.876C85.4322 73.876 83.4642 75.796 83.4642 78.244C83.4642 80.612 85.3522 82.628 87.8162 82.628ZM97.2712 82.628C98.8712 82.628 100.567 81.764 101.255 80.372L99.6232 79.94C99.0632 80.596 98.1672 80.98 97.2712 80.98C96.0072 80.98 94.9512 80.212 94.7432 78.932H101.559C101.655 78.452 101.639 77.956 101.543 77.492C101.175 75.444 99.4152 73.876 97.2712 73.876C94.8872 73.876 92.9192 75.796 92.9192 78.244C92.9192 80.628 94.8232 82.628 97.2712 82.628ZM94.7432 77.508C94.9512 76.436 95.9112 75.508 97.2552 75.508C98.5992 75.508 99.5432 76.436 99.7512 77.508H94.7432ZM28.902 101.904H29.694C28.866 101.016 27.786 98.976 27.786 96.804C27.786 94.62 28.89 92.568 29.706 91.692H28.926C27.906 92.712 26.91 94.62 26.91 96.804C26.91 98.964 27.894 100.872 28.902 101.904ZM30.4876 100.5H31.5436V97.344H33.7396L35.6956 100.5H36.8476L34.7956 97.236C35.8996 96.984 36.7516 96.036 36.7516 94.752C36.7516 93.336 35.7076 92.1 34.0756 92.1H30.4876V100.5ZM31.5436 96.42V93.048H34.0756C35.1316 93.048 35.7316 93.816 35.7316 94.728C35.7316 95.76 34.9636 96.42 33.9556 96.42H31.5436ZM37.9876 100.5H39.0436V96.768H43.4236V95.82H39.0436V93.072H43.9036V92.1H37.9876V100.5ZM48.8025 100.596C49.6905 100.596 50.5185 100.32 51.1905 99.852L51.8145 100.5H53.1225L51.8985 99.24C52.6065 98.472 53.0385 97.428 53.0385 96.3C53.0265 93.924 51.1425 92.004 48.8025 92.004C46.4385 92.004 44.5665 93.936 44.5665 96.3C44.5665 98.664 46.4265 100.596 48.8025 100.596ZM48.8025 99.6C46.9665 99.6 45.6225 98.112 45.6225 96.3C45.6225 94.476 46.9905 92.988 48.8025 92.988C50.6265 92.988 51.9825 94.488 51.9825 96.3C51.9825 97.152 51.6945 97.92 51.1905 98.508L49.6305 96.888H48.3225L50.4825 99.12C50.0025 99.42 49.4265 99.6 48.8025 99.6ZM53.9395 101.892H54.7195L55.5955 99.108H54.5515L53.9395 101.892ZM60.0305 100.5H61.0865V97.344H63.2825L65.2385 100.5H66.3905L64.3385 97.236C65.4425 96.984 66.2945 96.036 66.2945 94.752C66.2945 93.336 65.2505 92.1 63.6185 92.1H60.0305V100.5ZM61.0865 96.42V93.048H63.6185C64.6745 93.048 65.2745 93.816 65.2745 94.728C65.2745 95.76 64.5065 96.42 63.4985 96.42H61.0865ZM67.5305 100.5H68.5865V96.768H72.9665V95.82H68.5865V93.072H73.4465V92.1H67.5305V100.5ZM74.5852 100.5H75.6412V97.536L78.1732 97.524C79.8052 97.524 80.8492 96.336 80.8492 94.812C80.8492 93.324 79.8052 92.1 78.1732 92.1H74.5852V100.5ZM75.6412 96.588V93.06H78.1132C79.2292 93.06 79.8292 93.816 79.8292 94.788C79.8292 95.772 79.2292 96.576 78.1132 96.576L75.6412 96.588ZM80.5528 101.892H81.3328L82.2088 99.108H81.1648L80.5528 101.892ZM86.6438 100.5H87.6998V97.344H89.8958L91.8518 100.5H93.0038L90.9518 97.236C92.0558 96.984 92.9078 96.036 92.9078 94.752C92.9078 93.336 91.8638 92.1 90.2318 92.1H86.6438V100.5ZM87.6998 96.42V93.048H90.2318C91.2878 93.048 91.8878 93.816 91.8878 94.728C91.8878 95.76 91.1198 96.42 90.1118 96.42H87.6998ZM94.1438 100.5H95.1998V96.768H99.5798V95.82H95.1998V93.072H100.06V92.1H94.1438V100.5ZM101.319 100.5H102.375V92.1H101.319V100.5ZM103.272 101.904H104.052C105.072 100.884 106.068 98.964 106.068 96.792C106.068 94.62 105.084 92.724 104.076 91.692H103.284C104.112 92.58 105.192 94.608 105.192 96.792C105.192 98.964 104.088 101.028 103.272 101.904Z" fill="white"></path><defs><linearGradient id="paint0_linear_5058_138915" x1="36.5" y1="132" x2="36.5" y2="47.5" gradientUnits="userSpaceOnUse"><stop stop-color="#272E3A"></stop><stop offset="1" stop-color="#242C38" stop-opacity="0"></stop></linearGradient><linearGradient id="paint1_linear_5058_138915" x1="66" y1="0" x2="66" y2="132" gradientUnits="userSpaceOnUse"><stop stop-color="#8624FF"></stop><stop offset="1" stop-color="#8624FF" stop-opacity="0"></stop></linearGradient></defs></svg>