<?xml version="1.0" encoding="UTF-8"?> <svg xmlns="http://www.w3.org/2000/svg" id="Layer_1" data-name="Layer 1" viewBox="0 0 330 100"><defs><style>.cls-1{fill:#fdcb23;}</style></defs><path d="M35.31,5a27.07,27.07,0,0,0-21.17,9.73V6H1V95H14.14V62.06a27.43,27.43,0,0,0,21.17,9.86,31.22,31.22,0,0,0,22.74-9.78,34,34,0,0,0,9.43-23.78,33.68,33.68,0,0,0-9.43-23.54A31.41,31.41,0,0,0,35.31,5Zm-.12,11.89c11.7,0,20.84,9.4,20.84,21.38S46.68,59.86,35.19,59.86s-21-9.69-21-21.63C14.1,26.67,23.74,16.85,35.19,16.85Z"></path><path d="M120.87,51.12a23.32,23.32,0,0,1-18.33,8.78c-10.34,0-18.24-6.57-19.85-16.43h52.64l0-.58a38.28,38.28,0,0,0-.53-9.65,33.87,33.87,0,0,0-10.92-20.13A32.28,32.28,0,0,0,102.54,5c-18.2,0-33,15-33,33.44a33.77,33.77,0,0,0,9.51,23.66A32.56,32.56,0,0,0,102.5,72c12.56,0,24.88-7.15,29.95-17.43ZM82.69,32.82A19.81,19.81,0,0,1,102.42,16.9,19.57,19.57,0,0,1,121.9,32.82Z"></path><path d="M191.22,12a27.89,27.89,0,0,0-18.91-7,25.31,25.31,0,0,0-20.1,9.44V6H139.07V71h13.14V37.69c0-12,7.5-20.71,17.84-20.71,7.82,0,16.27,5.65,16.27,18.05V71h13.14V31.53C199.46,23.63,196.62,16.85,191.22,12Z"></path><path d="M257.86,12A27.87,27.87,0,0,0,239,5a25.3,25.3,0,0,0-20.1,9.44V6H205.72V71h13.14V37.69c0-12,7.49-20.71,17.83-20.71C244.52,17,253,22.63,253,35V71H266.1V31.53C266.1,23.63,263.26,16.85,257.86,12Z"></path><path d="M315.28,6,296.91,55.16,277.47,6H263.71L290.4,70.13,280.31,95h13.47L329,6Z"></path><path class="cls-1" d="M304.2,86.56a8.27,8.27,0,0,1,8.28-8.49,8.49,8.49,0,1,1-8.28,8.49Z"></path></svg> 