<svg xmlns="http://www.w3.org/2000/svg" width="32" height="32" viewBox="0 0 32 32" fill="none"><path d="M15.9987 21.0007C17.5765 21.0007 18.9154 20.4507 20.0154 19.3507C21.1154 18.2507 21.6654 16.9118 21.6654 15.334C21.6654 13.7562 21.1154 12.4173 20.0154 11.3173C18.9154 10.2173 17.5765 9.66732 15.9987 9.66732C14.4209 9.66732 13.082 10.2173 11.982 11.3173C10.882 12.4173 10.332 13.7562 10.332 15.334C10.332 16.9118 10.882 18.2507 11.982 19.3507C13.082 20.4507 14.4209 21.0007 15.9987 21.0007ZM15.9987 19.0673C14.9543 19.0673 14.0709 18.7062 13.3487 17.984C12.6265 17.2618 12.2654 16.3784 12.2654 15.334C12.2654 14.2895 12.6265 13.4062 13.3487 12.684C14.0709 11.9618 14.9543 11.6007 15.9987 11.6007C17.0431 11.6007 17.9265 11.9618 18.6487 12.684C19.3709 13.4062 19.732 14.2895 19.732 15.334C19.732 16.3784 19.3709 17.2618 18.6487 17.984C17.9265 18.7062 17.0431 19.0673 15.9987 19.0673ZM15.9987 25.334C12.7543 25.334 9.82092 24.4118 7.1987 22.5673C4.57648 20.7229 2.62092 18.3118 1.33203 15.334C2.62092 12.3562 4.57648 9.9451 7.1987 8.10065C9.82092 6.25621 12.7543 5.33398 15.9987 5.33398C19.2431 5.33398 22.1765 6.25621 24.7987 8.10065C27.4209 9.9451 29.3765 12.3562 30.6654 15.334C29.3765 18.3118 27.4209 20.7229 24.7987 22.5673C22.1765 24.4118 19.2431 25.334 15.9987 25.334Z" fill="#8624FF"></path></svg>