<?xml version="1.0" encoding="UTF-8"?> <svg xmlns="http://www.w3.org/2000/svg" width="32" height="32" viewBox="0 0 32 32" fill="none"><path fill-rule="evenodd" clip-rule="evenodd" d="M20.6654 1.33594H5.9987C4.53203 1.33594 3.33203 2.53594 3.33203 4.0026V21.3359C3.33203 22.0693 3.93203 22.6693 4.66536 22.6693C5.3987 22.6693 5.9987 22.0693 5.9987 21.3359V5.33594C5.9987 4.6026 6.5987 4.0026 7.33203 4.0026H20.6654C21.3987 4.0026 21.9987 3.4026 21.9987 2.66927C21.9987 1.93594 21.3987 1.33594 20.6654 1.33594ZM21.4507 7.45854L27.8907 13.8985C28.3841 14.3919 28.6641 15.0719 28.6641 15.7785V28.0052C28.6641 29.4719 27.4641 30.6719 25.9974 30.6719H11.3174C9.85073 30.6719 8.66406 29.4719 8.66406 28.0052L8.6774 9.33854C8.6774 7.87187 9.86406 6.67188 11.3307 6.67188H19.5574C20.2641 6.67188 20.9441 6.95188 21.4507 7.45854ZM26.6654 16.0052H20.6654C19.932 16.0052 19.332 15.4052 19.332 14.6719V8.67188L26.6654 16.0052Z" fill="#A256FF"></path></svg> 