<?xml version="1.0" encoding="UTF-8"?> <svg xmlns="http://www.w3.org/2000/svg" width="32" height="32" viewBox="0 0 32 32" fill="none"><path fill-rule="evenodd" clip-rule="evenodd" d="M16.548 3.4374L28.548 15.4374C29.028 15.9174 29.3346 16.5974 29.3346 17.3307C29.3346 18.0641 29.0413 18.7307 28.548 19.2107L19.2146 28.5441C18.7346 29.0374 18.068 29.3307 17.3346 29.3307C16.6013 29.3307 15.9346 29.0374 15.4546 28.5574L3.45464 16.5574C2.9613 16.0641 2.66797 15.3974 2.66797 14.6641V5.33073C2.66797 3.86406 3.86797 2.66406 5.33464 2.66406H14.668C15.4013 2.66406 16.068 2.9574 16.548 3.4374ZM5.33594 7.32812C5.33594 8.43479 6.22927 9.32812 7.33594 9.32812C8.4426 9.32812 9.33594 8.43479 9.33594 7.32812C9.33594 6.22146 8.4426 5.32812 7.33594 5.32812C6.22927 5.32812 5.33594 6.22146 5.33594 7.32812Z" fill="#E6B100"></path></svg> 