<?xml version="1.0" encoding="UTF-8"?> <svg xmlns="http://www.w3.org/2000/svg" width="32" height="32" viewBox="0 0 32 32" fill="none"><path fill-rule="evenodd" clip-rule="evenodd" d="M2.66016 3.9974C2.66016 4.73073 3.26016 5.33073 3.99349 5.33073H5.32682L10.1268 15.4507L8.32682 18.7041C7.35349 20.4907 8.63349 22.6641 10.6602 22.6641H25.3268C26.0602 22.6641 26.6602 22.0641 26.6602 21.3307C26.6602 20.5974 26.0602 19.9974 25.3268 19.9974H10.6602L12.1268 17.3307H22.0602C23.0602 17.3307 23.9402 16.7841 24.3935 15.9574L29.1668 7.30406C29.6602 6.42406 29.0202 5.33073 28.0068 5.33073H8.27349L7.38016 3.42406C7.16682 2.9574 6.68682 2.66406 6.18016 2.66406H3.99349C3.26016 2.66406 2.66016 3.26406 2.66016 3.9974ZM10.6611 24C9.19448 24 8.00781 25.2 8.00781 26.6667C8.00781 28.1333 9.19448 29.3333 10.6611 29.3333C12.1278 29.3333 13.3278 28.1333 13.3278 26.6667C13.3278 25.2 12.1278 24 10.6611 24ZM21.3398 26.6667C21.3398 25.2 22.5265 24 23.9932 24C25.4598 24 26.6598 25.2 26.6598 26.6667C26.6598 28.1333 25.4598 29.3333 23.9932 29.3333C22.5265 29.3333 21.3398 28.1333 21.3398 26.6667Z" fill="#35DC7D"></path></svg> 