<?xml version="1.0" encoding="UTF-8"?> <svg xmlns="http://www.w3.org/2000/svg" width="32" height="32" viewBox="0 0 32 32" fill="none"><path fill-rule="evenodd" clip-rule="evenodd" d="M5.33333 4H26.6667C27.4 4 28 4.6 28 5.33333V26.6667C28 27.4 27.4 28 26.6667 28H5.33333C4.6 28 4 27.4 4 26.6667V5.33333C4 4.6 4.6 4 5.33333 4ZM9.33203 9.33594H11.9987V12.0026H9.33203V9.33594ZM16.0013 12.0026H21.3346C22.068 12.0026 22.668 11.4026 22.668 10.6693C22.668 9.93594 22.068 9.33594 21.3346 9.33594H16.0013C15.268 9.33594 14.668 9.93594 14.668 10.6693C14.668 11.4026 15.268 12.0026 16.0013 12.0026ZM16.0013 17.3307H21.3346C22.068 17.3307 22.668 16.7307 22.668 15.9974C22.668 15.2641 22.068 14.6641 21.3346 14.6641H16.0013C15.268 14.6641 14.668 15.2641 14.668 15.9974C14.668 16.7307 15.268 17.3307 16.0013 17.3307ZM21.3346 22.6667H16.0013C15.268 22.6667 14.668 22.0667 14.668 21.3333C14.668 20.6 15.268 20 16.0013 20H21.3346C22.068 20 22.668 20.6 22.668 21.3333C22.668 22.0667 22.068 22.6667 21.3346 22.6667ZM11.9987 14.6641H9.33203V17.3307H11.9987V14.6641ZM9.33203 20H11.9987V22.6667H9.33203V20Z" fill="#0052CC"></path></svg> 