<?xml version="1.0" encoding="UTF-8"?> <svg xmlns="http://www.w3.org/2000/svg" width="32" height="32" viewBox="0 0 32 32" fill="none"><g clip-path="url(#clip0_3382_44182)"><path fill-rule="evenodd" clip-rule="evenodd" d="M26 4.66406L24 2.66406L22 4.66406L20 2.66406L18 4.66406L16 2.66406L14 4.66406L12 2.66406L10 4.66406L8 2.66406V20.9141L20.668 20.9141C21.0822 20.9141 21.418 21.2498 21.418 21.6641C21.418 21.7218 21.4114 21.778 21.3991 21.832C21.4114 21.886 21.418 21.9423 21.418 22C21.418 24.3149 21.7605 25.7395 22.4108 26.5199C22.9959 27.222 23.9936 27.5743 25.878 27.2602C26.2866 27.1921 26.673 27.4681 26.7411 27.8767C26.7654 28.0225 26.7459 28.1655 26.6921 28.2922C27.4962 27.5611 28 26.5061 28 25.3307V2.66406L26 4.66406ZM26.0868 28.746C23.9891 29.0886 22.3336 28.7703 21.2585 27.4801C20.3025 26.3329 19.9589 24.5759 19.9215 22.4141L4.02366 22.4141C4.00813 22.4951 4 22.5787 4 22.6641V25.3307C4 27.5441 5.78667 29.3307 8 29.3307H24C24.7654 29.3307 25.4797 29.1171 26.0868 28.746ZM18.6667 11.9948C19.4 11.9948 20 11.3948 20 10.6615C20 9.92812 19.4 9.32812 18.6667 9.32812H13.3333C12.6 9.32812 12 9.92812 12 10.6615C12 11.3948 12.6 11.9948 13.3333 11.9948H18.6667ZM18.6667 15.9948C19.4 15.9948 20 15.3948 20 14.6615C20 13.9281 19.4 13.3281 18.6667 13.3281H13.3333C12.6 13.3281 12 13.9281 12 14.6615C12 15.3948 12.6 15.9948 13.3333 15.9948H18.6667ZM22.6654 11.9948C23.4017 11.9948 23.9987 11.3978 23.9987 10.6615C23.9987 9.92508 23.4017 9.32812 22.6654 9.32812C21.929 9.32812 21.332 9.92508 21.332 10.6615C21.332 11.3978 21.929 11.9948 22.6654 11.9948ZM23.9987 14.6615C23.9987 15.3978 23.4017 15.9948 22.6654 15.9948C21.929 15.9948 21.332 15.3978 21.332 14.6615C21.332 13.9251 21.929 13.3281 22.6654 13.3281C23.4017 13.3281 23.9987 13.9251 23.9987 14.6615Z" fill="#006880"></path></g><defs><clipPath id="clip0_3382_44182"><rect width="32" height="32" fill="white"></rect></clipPath></defs></svg> 