<?xml version="1.0" encoding="UTF-8"?> <svg xmlns="http://www.w3.org/2000/svg" width="32" height="32" viewBox="0 0 32 32" fill="none"><g clip-path="url(#clip0_3382_44204)"><path d="M30.6654 10.6693V24.0026C30.6654 25.4693 29.4654 26.6693 27.9987 26.6693H6.66536C5.93203 26.6693 5.33203 26.0693 5.33203 25.3359C5.33203 24.6026 5.93203 24.0026 6.66536 24.0026H27.9987V10.6693C27.9987 9.93594 28.5987 9.33594 29.332 9.33594C30.0654 9.33594 30.6654 9.93594 30.6654 10.6693ZM5.33203 21.3359C3.1187 21.3359 1.33203 19.5493 1.33203 17.3359V9.33594C1.33203 7.1226 3.1187 5.33594 5.33203 5.33594H21.332C23.5454 5.33594 25.332 7.1226 25.332 9.33594V18.6693C25.332 20.1359 24.132 21.3359 22.6654 21.3359H5.33203ZM9.33203 13.3359C9.33203 15.5493 11.1187 17.3359 13.332 17.3359C15.5454 17.3359 17.332 15.5493 17.332 13.3359C17.332 11.1226 15.5454 9.33594 13.332 9.33594C11.1187 9.33594 9.33203 11.1226 9.33203 13.3359Z" fill="#FF2F3F"></path></g><defs><clipPath id="clip0_3382_44204"><rect width="32" height="32" fill="white"></rect></clipPath></defs></svg> 