<svg xmlns="http://www.w3.org/2000/svg" width="32" height="32" viewBox="0 0 32 32" fill="none"><path fill-rule="evenodd" clip-rule="evenodd" d="M21.3346 10.6693C21.3346 13.6159 18.948 16.0026 16.0013 16.0026C13.0546 16.0026 10.668 13.6159 10.668 10.6693C10.668 7.7226 13.0546 5.33594 16.0013 5.33594C18.948 5.33594 21.3346 7.7226 21.3346 10.6693ZM5.33398 24.0052C5.33398 20.4585 12.4407 18.6719 16.0007 18.6719C19.5607 18.6719 26.6673 20.4585 26.6673 24.0052V25.3385C26.6673 26.0719 26.0673 26.6719 25.334 26.6719H6.66732C5.93398 26.6719 5.33398 26.0719 5.33398 25.3385V24.0052Z" fill="#8624FF"/><path fill-rule="evenodd" clip-rule="evenodd" d="M20.8691 4.52106C20.8691 2.79306 22.2716 1.39062 23.9996 1.39062C25.7276 1.39062 27.13 2.79306 27.13 4.52106C27.13 6.24906 25.7276 7.65149 23.9996 7.65149C22.2716 7.65149 20.8691 6.24906 20.8691 4.52106ZM22.0252 4.74021L23.149 5.86403C23.2711 5.98612 23.4714 5.98612 23.5904 5.86403L25.9664 3.48803C26.0885 3.36595 26.0885 3.16873 25.9664 3.04664C25.8443 2.92456 25.6471 2.92456 25.525 3.04664L23.3712 5.20038L22.4665 4.29882C22.3445 4.17673 22.1472 4.17673 22.0252 4.29882C21.9665 4.3573 21.9336 4.43671 21.9336 4.51951C21.9336 4.60232 21.9665 4.68172 22.0252 4.74021Z" fill="#8624FF"/></svg>