<svg xmlns="http://www.w3.org/2000/svg" width="32" height="32" viewBox="0 0 32 32" fill="none"><path d="M20.9013 22.4327L22.4013 20.9327L17.1013 15.5993V8.89935H15.1013V16.3993L20.9013 22.4327ZM16.0013 29.3327C14.1791 29.3327 12.4569 28.9827 10.8346 28.2827C9.21241 27.5827 7.79575 26.6271 6.58464 25.416C5.37352 24.2049 4.41797 22.7882 3.71797 21.166C3.01797 19.5438 2.66797 17.8216 2.66797 15.9993C2.66797 14.1771 3.01797 12.4549 3.71797 10.8327C4.41797 9.21046 5.37352 7.79379 6.58464 6.58268C7.79575 5.37157 9.21241 4.41602 10.8346 3.71602C12.4569 3.01602 14.1791 2.66602 16.0013 2.66602C17.8235 2.66602 19.5457 3.01602 21.168 3.71602C22.7902 4.41602 24.2069 5.37157 25.418 6.58268C26.6291 7.79379 27.5846 9.21046 28.2846 10.8327C28.9846 12.4549 29.3346 14.1771 29.3346 15.9993C29.3346 17.8216 28.9846 19.5438 28.2846 21.166C27.5846 22.7882 26.6291 24.2049 25.418 25.416C24.2069 26.6271 22.7902 27.5827 21.168 28.2827C19.5457 28.9827 17.8235 29.3327 16.0013 29.3327Z" fill="#8624FF"></path></svg>